<svg id="Layer_1" data-name="Layer 1" xmlns="http://www.w3.org/2000/svg" viewBox="0 0 655.44677 491.13996"><defs><style>.cls-1,.cls-27{fill:#f6ec13;}.cls-1,.cls-6{stroke:#f6ec13;}.cls-1,.cls-10,.cls-11,.cls-12,.cls-15,.cls-16,.cls-17,.cls-18,.cls-2,.cls-23,.cls-24,.cls-28,.cls-29,.cls-3,.cls-31,.cls-4,.cls-5,.cls-6,.cls-7,.cls-8,.cls-9{stroke-miterlimit:10;}.cls-1,.cls-10,.cls-11,.cls-15,.cls-16,.cls-17,.cls-18,.cls-2,.cls-23,.cls-24,.cls-28,.cls-29,.cls-3,.cls-4,.cls-5,.cls-8,.cls-9{stroke-width:3px;}.cls-2{fill:#ea3534;}.cls-2,.cls-5{stroke:#ea3534;}.cls-19,.cls-3{fill:#e8e115;}.cls-3{stroke:#e8e115;}.cls-10,.cls-17,.cls-23,.cls-24,.cls-4,.cls-5,.cls-6,.cls-7,.cls-8,.cls-9{fill:none;}.cls-15,.cls-4,.cls-7{stroke:#488ecc;}.cls-8{stroke:#7e7e7f;}.cls-11,.cls-16,.cls-9{stroke:#919091;}.cls-10{stroke:#010101;}.cls-11,.cls-13{fill:#fff;}.cls-12,.cls-14,.cls-18,.cls-31{fill:#6abf6b;}.cls-12,.cls-18{stroke:#6abf6b;}.cls-12,.cls-31{stroke-width:2px;}.cls-15,.cls-30{fill:#488ecc;}.cls-16{fill:#919091;}.cls-17{stroke:#7e7f7f;}.cls-20{fill:#3fb762;}.cls-21{fill:#c43030;}.cls-22{fill:#4285b8;}.cls-23{stroke:#7d7c7d;}.cls-24{stroke:#7e7d7e;}.cls-25{fill:#e8e117;}.cls-26{fill:#4285b9;}.cls-28{fill:#4285ba;stroke:#4285ba;}.cls-29{fill:#4285bb;stroke:#4285bb;}.cls-31{stroke:#6abf6c;}.cls-32{fill:#e6e7e8;}.cls-33{fill:#6abf6c;}</style></defs><title>background</title><rect class="cls-1" x="515.38699" y="53.05724" width="39.87872" height="90.56425" rx="19.93933" ry="19.93933" transform="translate(-31.9788 344.14797) rotate(-42.36755)"/><path class="cls-2" d="M565.84128,131.79546l0,0a19.998,19.998,0,0,1-28.16872-1.29512l-3.64129-3.99226q-6.84109-7.49626-13.68217-14.9926l29.48048-26.765q6.83276,7.442,13.66557,14.884l3.64129,3.99226A19.998,19.998,0,0,1,565.84128,131.79546Z" transform="translate(-105.51686 -42.28255)"/><rect class="cls-3" x="508.49221" y="78.04159" width="9.33229" height="27.51415" rx="4.66614" ry="4.66614" transform="translate(-33.36059 327.50111) rotate(-42.36755)"/><line class="cls-4" x1="492.64914" y1="333.3357" x2="552.5776" y2="372.63379"/><line class="cls-5" x1="486.82234" y1="350.93107" x2="537.99662" y2="384.71432"/><line class="cls-4" x1="485.69573" y1="372.18106" x2="519.51546" y2="394.0218"/><line class="cls-4" x1="465.95386" y1="402.03484" x2="499.86973" y2="423.80944"/><line class="cls-5" x1="447.18311" y1="411.5708" x2="498.70503" y2="445.34397"/><line class="cls-4" x1="433.07297" y1="424.4419" x2="493.34261" y2="463.39699"/><line class="cls-6" x1="489.32484" y1="341.58316" x2="545.66576" y2="378.61121"/><line class="cls-6" x1="485.47373" y1="361.86717" x2="528.81411" y2="390.1525"/><line class="cls-7" x1="487.71701" y1="383.95184" x2="507.71807" y2="396.98635"/><line class="cls-7" x1="496.6675" y1="325.84456" x2="557.30421" y2="365.39142"/><line class="cls-7" x1="477.75725" y1="399.04898" x2="497.9656" y2="412.50224"/><line class="cls-6" x1="455.55996" y1="406.47938" x2="500.02018" y2="435.49555"/><line class="cls-6" x1="440.04507" y1="417.26605" x2="496.33924" y2="454.19641"/><line class="cls-7" x1="427.98207" y1="431.10023" x2="488.59678" y2="470.66882"/><path class="cls-8" d="M607.77677,360.18705a76.971,76.971,0,0,0-16.78618,43.96267,75.98472,75.98472,0,0,0,7.40222,36.3223,75.37234,75.37234,0,0,1-9.30174,79.57055" transform="translate(-105.51686 -42.28255)"/><path class="cls-9" d="M667.81543,399.37022A76.971,76.971,0,0,1,634.331,432.43505a75.98472,75.98472,0,0,1-36.22875,7.84733,75.37234,75.37234,0,0,0-69.09234,40.54928" transform="translate(-105.51686 -42.28255)"/><line class="cls-10" x1="212.5115" y1="302.79087" x2="195.83505" y2="298.11856"/><line class="cls-10" x1="222.22378" y1="268.12573" x2="205.54732" y2="263.45342"/><line class="cls-10" x1="217.36764" y1="285.4583" x2="200.69118" y2="280.78599"/><line class="cls-10" x1="224.62965" y1="259.05139" x2="214.84947" y2="256.31124"/><line class="cls-10" x1="214.91737" y1="293.71653" x2="205.13719" y2="290.97637"/><line class="cls-10" x1="219.77351" y1="276.38396" x2="209.99333" y2="273.6438"/><path class="cls-11" d="M277.00273,261.62054c5.49227-10.329,70.51247,8.414,69.64185,19.51185-0.24041,3.06455-5.46033,5.31718-11.42038,6.95009q-8.67717,29.90521-17.3543,59.81043c17.6399,16.74978,25.49861,40.54394,19.93657,62.06723-8.09356,31.3194-43.34119,52.94108-77.155,43.83573-34.3855-9.25929-53.88073-46.68315-44.40132-77.89266,6.43711-21.19321,25.57257-37.3393,49.37074-42.46691q8.31693-30.01,16.63388-60.0201C278.53791,269.09538,275.5138,264.42067,277.00273,261.62054Z" transform="translate(-105.51686 -42.28255)"/><path class="cls-12" d="M332.30248,418.108a56.68373,56.68373,0,0,1-5.05365,9.08615c-10.62832,15.54424-26.12359,21.39344-30.72573,22.94986a60.89394,60.89394,0,0,1-79.65185-50.07206,59.84335,59.84335,0,0,1,.12153-15.70193c17.31569-10.26495,29.188-9.981,36.54991-8.16344,20.03436,4.94611,24.61238,25.67965,49.86432,36.437A71.08443,71.08443,0,0,0,332.30248,418.108Z" transform="translate(-105.51686 -42.28255)"/><circle class="cls-12" cx="287.21417" cy="324.07283" r="6.09132" transform="translate(-207.84525 470.92455) rotate(-74.3485)"/><circle class="cls-12" cx="315.22199" cy="289.14036" r="4.36595" transform="translate(-153.75634 472.38566) rotate(-74.3485)"/><circle class="cls-12" cx="297.57631" cy="317.0716" r="1.99776" transform="translate(-193.53704 475.79007) rotate(-74.3485)"/><circle class="cls-12" cx="298.9563" cy="250.65577" r="3.9143" transform="translate(-128.57619 428.62108) rotate(-74.3485)"/><circle class="cls-12" cx="333.40266" cy="241.8866" r="6.11311" transform="translate(-94.97894 455.38681) rotate(-74.3485)"/><circle class="cls-13" cx="237.93307" cy="398.42686" r="5.19398" transform="translate(-315.42804 477.76517) rotate(-74.3485)"/><circle class="cls-13" cx="283.28747" cy="429.96813" r="6.76926" transform="translate(-312.68134 544.46975) rotate(-74.3485)"/><circle class="cls-13" cx="270.13946" cy="435.27152" r="1.88462" transform="translate(-327.38894 535.68187) rotate(-74.3485)"/><circle class="cls-13" cx="661.05378" cy="306.46743" r="6.89821" transform="translate(-155.05217 103.0094) rotate(-12.09307)"/><line class="cls-9" x1="567.29936" y1="147.72626" x2="550.36506" y2="151.35451"/><line class="cls-9" x1="559.75735" y1="112.52515" x2="542.82305" y2="116.1534"/><line class="cls-9" x1="563.52836" y1="130.1257" x2="546.59406" y2="133.75396"/><line class="cls-9" x1="557.66223" y1="103.37406" x2="547.73084" y2="105.50191"/><line class="cls-9" x1="565.20425" y1="138.57517" x2="555.27285" y2="140.70302"/><line class="cls-9" x1="561.43324" y1="120.97461" x2="551.50185" y2="123.10246"/><path class="cls-11" d="M597.72706,140.3476c0.13994-11.96566,66.31719-25.39192,70.71861-15.15182,1.21387,2.82414-2.35725,7.24782-6.87192,11.46759q6.37013,31.28638,12.74019,62.57278c13.39153,8.70453,94.87757,62.40115,84.18566,91.24441-3.48778,9.40882-14.94581,11.2138-84.67611,26.53716-72.12095,15.8487-83.37209,19.08386-90.51365,11.937-12.93958-12.94916,1.78711-46.65826,12.75457-72.5156a234.64509,234.64509,0,0,1,26.00695-46.00976q-6.93895-30.83132-13.87793-61.66264C602.70234,146.5407,597.68837,143.65621,597.72706,140.3476Z" transform="translate(-105.51686 -42.28255)"/><path class="cls-12" d="M713.80168,306.00685c-8.3589,1.90432-17.23805,3.96225-36.05791,8.2232l-1.285.29087c-34.49952,7.79992-37.72237,7.74417-57.274,12.22887-0.00009,0-2.17409.49867-8.72026,1.76006-10.42273,2.00835-13.79069,2.31654-17.71413,1.73759-3.50263-.51683-5.25393-0.77527-7.04859-2.06378-6.2099-4.45852-5.14065-15.57175-4.57239-21.47825,0.74015-7.6929,3.24732-14.38288,8.23818-27.44624,1.78978-4.68467,3.36194-8.50641,4.43621-11.06092a98.14655,98.14655,0,0,1,35.64773-13.14206c36.877-5.651,61.64571,13.68116,84.63743-.39656a41.078,41.078,0,0,0,12.82549-12.7123,133.54226,133.54226,0,0,1,13.378,12.71857A90.838,90.838,0,0,1,751.772,269.75055c4.34917,7.30194,5.15983,11.26385,5.18438,14.593a20.48966,20.48966,0,0,1-.90994,6.36815C753.71671,297.38834,744.56265,298.99888,713.80168,306.00685Z" transform="translate(-105.51686 -42.28255)"/><circle class="cls-13" cx="628.36169" cy="282.29834" r="7.56972" transform="translate(-150.71422 95.62405) rotate(-12.09307)"/><circle class="cls-13" cx="722.118" cy="281.52937" r="4.69347" transform="translate(-148.47254 115.24897) rotate(-12.09307)"/><circle class="cls-14" cx="663.98605" cy="231.4617" r="7.79285" transform="translate(-139.27337 101.95923) rotate(-12.09307)"/><circle class="cls-14" cx="634.52055" cy="149.70099" r="6.05438" transform="translate(-122.79836 93.97181) rotate(-12.09307)"/><circle class="cls-14" cx="613.10595" cy="109.62583" r="3.37892" transform="translate(-114.87782 88.59612) rotate(-12.09307)"/><circle class="cls-14" cx="647.49423" cy="86.04589" r="7.30846" transform="translate(-109.17469 95.27721) rotate(-12.09307)"/><circle class="cls-13" cx="619.89895" cy="269.03305" r="0.81184" transform="translate(-148.12294 93.55673) rotate(-12.09307)"/><circle class="cls-14" cx="659.43178" cy="218.45406" r="1.7281" transform="translate(-136.64933 100.71645) rotate(-12.09307)"/><circle class="cls-15" cx="271.29603" cy="68.38739" r="24.59844" transform="translate(-1.82829 250.12742) rotate(-67.34536)"/><circle class="cls-2" cx="371.89886" cy="122.64713" r="17.93573" transform="translate(9.95156 376.32827) rotate(-67.34536)"/><line class="cls-16" x1="194.57423" y1="64.77836" x2="180.89902" y2="47.32358"/><line class="cls-17" x1="195.96344" y1="92.50089" x2="178.126" y2="116.82798"/><line class="cls-17" x1="222.27932" y1="77.91349" x2="247.32553" y2="79.45695"/><circle class="cls-1" cx="272.33837" cy="169.35069" r="15.25207" transform="translate(-94.36074 313.16403) rotate(-67.34536)"/><circle class="cls-18" cx="310.15924" cy="121.96931" r="16.65259" transform="translate(-27.38195 318.93554) rotate(-67.34536)"/><path class="cls-19" d="M277.92361,181.16332a10.9993,10.9993,0,0,1-14.08349-3.98837,16.62744,16.62744,0,0,0,19.574-9.46818A10.99783,10.99783,0,0,1,277.92361,181.16332Z" transform="translate(-105.51686 -42.28255)"/><path class="cls-20" d="M309.65193,111.99758A29.16568,29.16568,0,0,0,297.53,116.28873a13.7063,13.7063,0,0,1,25.10219-2.87007A29.17069,29.17069,0,0,0,309.65193,111.99758Z" transform="translate(-105.51686 -42.28255)"/><path class="cls-21" d="M382.52656,133.62014a27.17927,27.17927,0,0,0-7.60741-25.58568c0.589,0.053,8.26336.87052,11.70612,7.37595C389.65662,121.13843,388.09792,128.802,382.52656,133.62014Z" transform="translate(-105.51686 -42.28255)"/><path class="cls-22" d="M257.64708,72.50329a40.61969,40.61969,0,0,0,5.83764,14.59925,18.52961,18.52961,0,0,1-4.79814-33.74161A40.81692,40.81692,0,0,0,257.64708,72.50329Z" transform="translate(-105.51686 -42.28255)"/><path class="cls-9" d="M491.9691,216.66893c0.00189,33.29745-17.41986,72.48807-35.70154,72.55472-18.26727.0666-36.0932-38.93379-36.16217-72.32439-0.06952-33.64346,17.86462-72.85175,36.16217-72.785C474.528,144.18079,491.96721,183.359,491.9691,216.66893Z" transform="translate(-105.51686 -42.28255)"/><path class="cls-9" d="M456.03714,180.737c33.29745-.00189,72.48807,17.41986,72.55472,35.70154,0.0666,18.26727-38.93379,36.0932-72.32439,36.16217-33.64346.06952-72.85175-17.86462-72.785-36.16217C383.549,198.17808,422.72721,180.73887,456.03714,180.737Z" transform="translate(-105.51686 -42.28255)"/><path class="cls-23" d="M430.62941,191.26121c23.54352-23.54619,63.57451-38.9391,76.54873-26.05913,12.964,12.86982-2.0086,53.0521-25.57055,76.71158-23.74036,23.83867-64.14617,38.88177-77.03731,25.89628C391.70528,254.85078,407.07707,214.81622,430.62941,191.26121Z" transform="translate(-105.51686 -42.28255)"/><path class="cls-24" d="M430.6338,241.86725c-23.54619-23.54352-38.9391-63.57451-26.05913-76.54873,12.86982-12.964,53.0521,2.0086,76.71158,25.57055,23.83867,23.74036,38.88177,64.14617,25.89628,77.03731C494.22337,280.79138,454.18881,265.41959,430.6338,241.86725Z" transform="translate(-105.51686 -42.28255)"/><circle class="cls-1" cx="350.52028" cy="174.05561" r="8.17983"/><circle class="cls-15" cx="299.71279" cy="225.72589" r="6.51061"/><circle class="cls-2" cx="361.95862" cy="124.75696" r="6.51061"/><circle class="cls-18" cx="414.02652" cy="189.26724" r="6.51061"/><path class="cls-25" d="M462.88023,217.92435a19.59588,19.59588,0,0,0-11.21442-7.36633,7.683,7.683,0,0,1,6.26691-.98952C461.05638,210.59807,463.20769,214.035,462.88023,217.92435Z" transform="translate(-105.51686 -42.28255)"/><path class="cls-26" d="M402.77672,269.41548a7.91866,7.91866,0,0,0,4.98419,3.45059c-3.18335,1.20259-6.51416-.2915-7.51459-2.83716a5.57465,5.57465,0,0,1,1.45691-5.82767A7.81569,7.81569,0,0,0,402.77672,269.41548Z" transform="translate(-105.51686 -42.28255)"/><path class="cls-21" d="M464.51823,164.18024a11.27478,11.27478,0,0,0-3.22467,5.17224,6.67477,6.67477,0,0,1,9.29089-7.98185A11.31513,11.31513,0,0,0,464.51823,164.18024Z" transform="translate(-105.51686 -42.28255)"/><path class="cls-20" d="M525.63359,232.88376a6.48338,6.48338,0,0,1-4.74976,5.00516,17.40215,17.40215,0,0,0,2.45148-11.28714A6.4802,6.4802,0,0,1,525.63359,232.88376Z" transform="translate(-105.51686 -42.28255)"/><path class="cls-9" d="M437.47888,390.93071c-6.54238,10.71106-12.05626,20.072-16.46486,27.69955-4.39127,7.59756-5.61388,9.8904-6.0051,13.28486-0.968,8.39916,4.446,12.333,1.55158,19.66539-0.55452,1.40473-2.51389,3.57815-2.14908,6.42334a3.742,3.742,0,0,0,1.43476,2.78584,3.8026,3.8026,0,0,0,3.25168-.00018c2.68406-1.0425,3.22016-4.00513,4.6058-5.68948,4.92041-5.981,11.49024-2.46462,18.69254-7.4869,2.77433-1.93461,4.15368-4.098,8.59062-11.45735,4.86383-8.06742,10.33113-17.28531,16.255-27.5337" transform="translate(-105.51686 -42.28255)"/><path class="cls-15" d="M436.84639,389.68092q18.04014-29.97254,36.08032-59.9451c0.30081-.89584,3.93224-11.10267,14.4111-12.51043a18.73018,18.73018,0,0,1,12.40017,2.41732,18.53223,18.53223,0,0,1,7.51184,9.12718c3.96112,9.83923-3.06276,18.17246-3.75675,18.96682q-17.714,30.1743-35.42805,60.34856" transform="translate(-105.51686 -42.28255)"/><line class="cls-4" x1="323.4319" y1="342.54895" x2="369.83396" y2="370.13074"/><path class="cls-27" d="M425.77053,431.42684c2.78322,3.05066,5.82385,2.93682,9.68979,6.345a21.35124,21.35124,0,0,1,5.83913,8.82926,14.86345,14.86345,0,0,1-2.97422,1.56451,23.33829,23.33829,0,0,1-4.41708,1.071c-3.35888.62775-3.017,0.43534-4.2862,0.75661a13.46574,13.46574,0,0,0-4.94238,2.09423,11.56846,11.56846,0,0,0-1.72987,1.63985,12.437,12.437,0,0,0-1.16939,1.67089c-0.96645,1.57424-.95929,2.05572-1.77642,2.9462a4.19522,4.19522,0,0,1-1.165.94359,2.38537,2.38537,0,0,1-2.14366.26117,2.2968,2.2968,0,0,1-.8683-1.7998,3.7987,3.7987,0,0,1,.18975-1.6743,39.05845,39.05845,0,0,1,2.15676-4.72875c0.73671-1.58456.64262-2.95341,0.46962-5.47009-0.25878-3.76471-1.4595-4.64387-2.09009-9.588a16.58864,16.58864,0,0,1-.20237-3.291,15.20134,15.20134,0,0,1,2.31419-7.15921q1.86284-3.27531,3.72567-6.55054C422.08976,426.00659,424.00566,429.49237,425.77053,431.42684Z" transform="translate(-105.51686 -42.28255)"/><path class="cls-27" d="M398.28471,466.329c-2.35039.4135-5.61357-.91459-6.06331-3.15607-0.44284-2.207,1.9749-4.6367,4.24545-5.22269,1.81545-.46855,2.40089.53471,6.86755,1.25933,2.98033,0.48347,4.60913.34334,4.6977,0.85577,0.09072,0.52481-1.57857.89847-4.08163,2.40046C400.34928,464.62674,400.25679,465.9821,398.28471,466.329Z" transform="translate(-105.51686 -42.28255)"/><path class="cls-26" d="M492.59994,327.42611h0a5.81176,5.81176,0,0,1,5.81176,5.81176v26.9132A5.81176,5.81176,0,0,1,492.6,365.96282h0a5.81175,5.81175,0,0,1-5.81175-5.81175v-26.9132a5.81175,5.81175,0,0,1,5.81175-5.81175Z" transform="translate(140.78733 -245.30634) rotate(30.72763)"/><rect class="cls-15" x="114.2239" y="511.61527" width="89.80213" height="11.64305" rx="5.82152" ry="5.82152" transform="translate(-216.27924 5.87564) rotate(-12.80969)"/><path class="cls-28" d="M132.074,478.56895h43.79351a14.10495,14.10495,0,0,1,14.10495,14.10495v2.39272a14.10487,14.10487,0,0,1-14.10487,14.10487H132.074a14.10487,14.10487,0,0,1-14.10487-14.10487v-2.3928A14.10487,14.10487,0,0,1,132.074,478.56895Z" transform="translate(-211.1825 4.14635) rotate(-12.80969)"/><rect class="cls-29" x="121.25172" y="383.22885" width="36.03801" height="94.80769" rx="12" ry="12" transform="translate(-197.52774 -0.68671) rotate(-12.80969)"/><path class="cls-1" d="M113.95235,318.92628c-0.35029,3.27032-.98841,8.19943-2.20617,14.12082-2.60468,12.6652-4.40683,13.1066-4.69454,19.17712-0.49354,10.41446,4.30983,20.74211,11.6432,26.20182,1.97833,1.47288,5.29353,3.86853,9.14723,3.18462,4.49814-.79826,6.97-5.3023,8.33612-7.79157,0.63009-1.1481,5.08146-9.57163,1.955-19.186-2.09775-6.45088-5.79631-7.88678-11.938-15.18972A76.53072,76.53072,0,0,1,113.95235,318.92628Z" transform="translate(-105.51686 -42.28255)"/><path class="cls-15" d="M178.3304,485.39034H186.86a1.47962,1.47962,0,0,1,1.47962,1.47962v0a1.47961,1.47961,0,0,1-1.47961,1.47961H178.3304a1.47962,1.47962,0,0,1-1.47962-1.47962v0A1.47961,1.47961,0,0,1,178.3304,485.39034Z" transform="translate(511.34717 158.59106) rotate(77.19031)"/><rect class="cls-15" x="186.07797" y="484.94088" width="10.60211" height="1.9148" rx="0.9574" ry="0.9574" transform="translate(-208.48399 12.24186) rotate(-12.80969)"/><path class="cls-3" d="M127.67444,347.2136c3.27269,3.05274,6.90649,5.29373,6.59181,8.38232a4.8388,4.8388,0,0,1-2.998,3.83954c-2.36547.87866-4.86847-.83818-6.08481-1.67249-7.26555-4.98356-7.01459-21.617-6.95-24.29408A40.29614,40.29614,0,0,0,127.67444,347.2136Z" transform="translate(-105.51686 -42.28255)"/><rect class="cls-30" x="125.60376" y="413.16327" width="13.296" height="55.31791" rx="6.64799" ry="6.64799" transform="translate(-199.96159 -1.98931) rotate(-12.80969)"/><path class="cls-11" d="M140.67971,110.33113L111.51732,251.8555c0.37778,5.88689,2.12351,19.36145,12.27945,30.32149,3.03733,3.27782,7.58358,8.05758,15.09993,9.97351,9.13971,2.32973,16.8402-1.06127,20.44572-2.649,14.14273-6.22792,20.22984-19.19214,21.9497-23.26826l29.95629-142.047c8.1269-2.716,9.938-4.93834,9.92364-6.53268-0.02952-3.28252-7.81425-5.84537-43.22129-13.36645-33.333-7.08051-41.67828-8.04736-43.27114-4.7992C133.89293,101.09216,134.56036,104.11805,140.67971,110.33113Z" transform="translate(-105.51686 -42.28255)"/><path class="cls-31" d="M168.10968,281.10486A41.80511,41.80511,0,0,1,148.35,290.59779a30.60057,30.60057,0,0,1-13.53357-2.61915c-18.78954-8.48942-20.77231-33.84236-20.86671-35.3288q7.24187-35.55606,14.48374-71.11211c3.44108-2.16357,8.77507-4.72839,14.90772-4.04955,12.38926,1.37138,16.07866,14.6571,29.88743,18.70584,4.40233,1.29077,11.14751,2.02807,20.62417-1.34561L179.307,265.43906A41.65071,41.65071,0,0,1,168.10968,281.10486Z" transform="translate(-105.51686 -42.28255)"/><circle class="cls-32" cx="142.40143" cy="207.49319" r="7.62077" transform="translate(-195.07832 262.80578) rotate(-78.35665)"/><circle class="cls-32" cx="161.45322" cy="256.21159" r="7.82673" transform="translate(-227.58746 320.35163) rotate(-78.35665)"/><circle class="cls-32" cx="148.54352" cy="264.70996" r="3.10219" transform="translate(-246.21524 314.49081) rotate(-78.35665)"/><circle class="cls-33" cx="181.93116" cy="152.41027" r="7.48346" transform="matrix(0.20182, -0.97942, 0.97942, 0.20182, -109.57698, 257.55596)"/><circle class="cls-33" cx="155.43296" cy="115.33589" r="3.98202" transform="translate(-94.41584 202.01095) rotate(-78.35665)"/><circle class="cls-33" cx="162.63119" cy="109.31867" r="1.8537" transform="translate(-82.77694 204.25823) rotate(-78.35665)"/><circle class="cls-33" cx="199.64689" cy="79.02308" r="6.72824" transform="matrix(0.20182, -0.97942, 0.97942, 0.20182, -23.55953, 216.33089)"/><circle class="cls-33" cx="162.92862" cy="58.20843" r="4.18799" transform="translate(-32.48101 163.75432) rotate(-78.35665)"/></svg>