<svg id="Layer_1" data-name="Layer 1" xmlns="http://www.w3.org/2000/svg" viewBox="0 0 644.94674 497.13995"><defs><style>.cls-1,.cls-22,.cls-32,.cls-33{fill:#f6ec13;}.cls-1,.cls-22,.cls-7{stroke:#f6ec13;}.cls-1,.cls-10,.cls-11,.cls-12,.cls-13,.cls-16,.cls-17,.cls-19,.cls-2,.cls-20,.cls-21,.cls-22,.cls-23,.cls-28,.cls-29,.cls-3,.cls-34,.cls-35,.cls-36,.cls-37,.cls-39,.cls-5,.cls-6,.cls-7,.cls-8,.cls-9{stroke-miterlimit:10;}.cls-1,.cls-10,.cls-11,.cls-12,.cls-16,.cls-19,.cls-2,.cls-20,.cls-21,.cls-22,.cls-23,.cls-28,.cls-29,.cls-3,.cls-34,.cls-35,.cls-36,.cls-37,.cls-5,.cls-6,.cls-9{stroke-width:3px;}.cls-1,.cls-11,.cls-12,.cls-13,.cls-14,.cls-2,.cls-3,.cls-32,.cls-34,.cls-4{opacity:0.74;}.cls-2,.cls-20{fill:#ea3534;}.cls-2,.cls-20,.cls-6{stroke:#ea3534;}.cls-24,.cls-3,.cls-37{fill:#e8e115;}.cls-3,.cls-37{stroke:#e8e115;}.cls-10,.cls-11,.cls-21,.cls-28,.cls-29,.cls-5,.cls-6,.cls-7,.cls-8,.cls-9{fill:none;}.cls-19,.cls-34,.cls-5,.cls-8{stroke:#488ecc;}.cls-9{stroke:#7e7e7f;}.cls-10,.cls-12,.cls-16{stroke:#919091;}.cls-11{stroke:#010101;}.cls-12,.cls-14,.cls-15,.cls-16{fill:#fff;}.cls-13,.cls-17,.cls-18,.cls-23,.cls-39{fill:#6abf6b;}.cls-13,.cls-17,.cls-23{stroke:#6abf6b;}.cls-13,.cls-17,.cls-39{stroke-width:2px;}.cls-19,.cls-34,.cls-38{fill:#488ecc;}.cls-21{stroke:#7e7f7f;}.cls-25{fill:#3fb762;}.cls-26{fill:#c43030;}.cls-27{fill:#4285b8;}.cls-28{stroke:#7d7c7d;}.cls-29{stroke:#7e7d7e;}.cls-30{fill:#e8e117;}.cls-31{fill:#4285b9;}.cls-35{fill:#4285ba;stroke:#4285ba;}.cls-36{fill:#4285bb;stroke:#4285bb;}.cls-39{stroke:#6abf6c;}.cls-40{fill:#e6e7e8;}.cls-41{fill:#6abf6c;}</style></defs><title>background</title><rect class="cls-1" x="409.87013" y="10.77474" width="39.87872" height="90.56425" rx="19.93933" ry="19.93933" transform="translate(71.97446 309.78173) rotate(-42.36755)"/><path class="cls-2" d="M460.32445,89.51288h0a19.998,19.998,0,0,1-28.1687-1.29512l-3.6413-3.99226q-6.841-7.49627-13.68219-14.9926l29.48047-26.765q6.83276,7.442,13.66559,14.884l3.6413,3.99226A19.998,19.998,0,0,1,460.32445,89.51288Z" transform="translate(-2.5 5.5)"/><path class="cls-3" d="M398.37085,39.35185h0a4.66614,4.66614,0,0,1,6.592.30308l12.25248,13.43345a4.66614,4.66614,0,0,1-.30308,6.592h0a4.66617,4.66617,0,0,1-6.592-.30306L398.06775,45.94382A4.66617,4.66617,0,0,1,398.37085,39.35185Z" transform="translate(-2.5 5.5)"/><path class="cls-1" d="M138.96141,195.14054l0,0a18.32805,18.32805,0,0,1,4.96569,23.33977l-20.2496,35.02751c-4.39952,7.61024-13.75576,9.49931-20.89776,4.21934l0,0A18.32805,18.32805,0,0,1,97.814,234.38739l20.2496-35.02751C122.46316,191.74964,131.8194,189.86057,138.96141,195.14054Z" transform="translate(-2.5 5.5)"/><path class="cls-2" d="M102.77984,257.72721h0a18.386,18.386,0,0,1-4.96568-23.33977l2.15875-3.73418q4.0527-7.01474,8.1054-14.02964l25.78743,19.15444q-4.0147,6.99781-8.02936,13.99567l-2.15875,3.73418C119.26253,261.09346,109.926,262.97849,102.77984,257.72721Z" transform="translate(-2.5 5.5)"/><path class="cls-3" d="M126.5019,197.52376h0a4.28908,4.28908,0,0,1,1.16205,5.4619L120.4,215.55068a3.26866,3.26866,0,0,1-4.89043.9874h0a4.2891,4.2891,0,0,1-1.16207-5.46191l7.26391-12.565A3.26868,3.26868,0,0,1,126.5019,197.52376Z" transform="translate(-2.5 5.5)"/><path class="cls-1" d="M416.435,396.03764l0,0a18.32805,18.32805,0,0,1,4.96569,23.33977L401.1511,454.405c-4.39952,7.61024-13.75576,9.49931-20.89776,4.21934l0,0a18.32805,18.32805,0,0,1-4.96569-23.33978L395.5372,400.257C399.93672,392.64674,409.293,390.75767,416.435,396.03764Z" transform="translate(-2.5 5.5)"/><path class="cls-2" d="M380.2534,458.62431h0a18.386,18.386,0,0,1-4.96568-23.33977l2.15875-3.73418q4.0527-7.01474,8.1054-14.02964l25.78743,19.15444q-4.0147,6.99781-8.02936,13.99567l-2.15875,3.73418C396.73609,461.99056,387.39958,463.87559,380.2534,458.62431Z" transform="translate(-2.5 5.5)"/><path class="cls-3" d="M403.97546,398.42086h0a4.28908,4.28908,0,0,1,1.16205,5.4619l-7.26391,12.565a3.26866,3.26866,0,0,1-4.89043.9874h0a4.2891,4.2891,0,0,1-1.16207-5.46191l7.26391-12.565A3.26868,3.26868,0,0,1,403.97546,398.42086Z" transform="translate(-2.5 5.5)"/><path class="cls-1" d="M269.91551,268.85672l0,0a12.83778,12.83778,0,0,1,19.33351.97691l23.443,28.24734a16.1054,16.1054,0,0,1-.8889,21.24768l0,0a12.83778,12.83778,0,0,1-19.33351-.97691l-23.443-28.24734A16.1054,16.1054,0,0,1,269.91551,268.85672Z" transform="translate(-2.5 5.5)"/><path class="cls-2" d="M311.80318,319.32855h0a12.87289,12.87289,0,0,1-19.3335-.97691l-2.49919-3.01137q-4.6953-5.65444-9.39073-11.30892l20.23383-20.18885q4.68965,5.61351,9.37933,11.227l2.49919,3.01137A16.15575,16.15575,0,0,1,311.80318,319.32855Z" transform="translate(-2.5 5.5)"/><path class="cls-3" d="M269.28153,281.49207h0a3.00426,3.00426,0,0,1,4.52437.22861l8.40945,10.13285a3.76894,3.76894,0,0,1-.208,4.97231h0a3.00428,3.00428,0,0,1-4.52438-.2286l-8.40945-10.13285A3.769,3.769,0,0,1,269.28153,281.49207Z" transform="translate(-2.5 5.5)"/><g class="cls-4"><line class="cls-5" x1="426.07753" y1="369.33899" x2="493.11959" y2="346.32396"/><line class="cls-6" x1="436.0861" y1="384.54129" x2="493.50907" y2="365.02483"/><line class="cls-5" x1="451.79458" y1="398.28505" x2="489.36903" y2="385.09313"/><line class="cls-5" x1="462.73785" y1="431.77586" x2="500.32018" y2="418.46881"/><line class="cls-6" x1="458.59674" y1="452.20862" x2="516.22488" y2="432.41457"/><line class="cls-5" x1="459.88473" y1="471.02037" x2="526.87116" y2="447.53122"/><line class="cls-7" x1="430.40547" y1="376.92798" x2="493.49782" y2="355.34061"/><line class="cls-7" x1="443.69929" y1="392.21483" x2="492.07997" y2="375.48852"/><line class="cls-8" x1="462.11648" y1="403.83198" x2="484.42906" y2="396.10158"/><line class="cls-8" x1="422.75849" y1="361.6658" x2="490.42643" y2="338.2482"/><line class="cls-8" x1="467.66509" y1="420.7498" x2="490.42779" y2="413.111"/><line class="cls-7" x1="459.79981" y1="442.58409" x2="509.43056" y2="425.42559"/><line class="cls-7" x1="458.61862" y1="461.23114" x2="521.60693" y2="439.62118"/><line class="cls-8" x1="461.904" y1="479.02708" x2="529.57527" y2="455.63982"/><path class="cls-9" d="M422.55734,346.99147a74.9724,74.9724,0,0,0,23.642,39.72335,73.77055,73.77055,0,0,0,32.56507,16.20686,73.2129,73.2129,0,0,1,55.70607,55.4335" transform="translate(-2.5 5.5)"/><path class="cls-10" d="M489.57822,323.8208a75.02573,75.02573,0,0,1-11.13822,79.213,74.96322,74.96322,0,0,0-11.0379,78.50847" transform="translate(-2.5 5.5)"/></g><line class="cls-11" x1="227.01151" y1="292.29083" x2="210.33505" y2="287.61853"/><line class="cls-11" x1="236.72379" y1="261.6257" x2="220.04732" y2="256.9534"/><line class="cls-11" x1="231.86765" y1="274.95828" x2="215.19118" y2="270.28595"/><line class="cls-11" x1="239.12965" y1="252.55136" x2="229.34947" y2="249.81122"/><line class="cls-11" x1="229.41737" y1="283.21649" x2="219.63719" y2="280.47635"/><line class="cls-11" x1="234.27351" y1="269.88394" x2="224.49333" y2="267.14377"/><path class="cls-12" d="M188.48586,203.338c5.49228-10.329,70.51248,8.414,69.64185,19.51184-0.24042,3.06454-5.46033,5.31717-11.42038,6.9501q-8.67719,29.9052-17.35431,59.81042c17.63989,16.74979,25.4986,40.54395,19.93658,62.06723-8.09357,31.3194-43.34119,52.94107-77.155,43.83572-34.3855-9.25928-53.88074-46.68314-44.40132-77.89267,6.4371-21.19321,25.57257-37.33929,49.37074-42.46692q8.31693-30.01,16.63388-60.02011C190.021,210.81279,186.99693,206.1381,188.48586,203.338Z" transform="translate(-2.5 5.5)"/><path class="cls-13" d="M243.78563,359.82542a56.684,56.684,0,0,1-5.05365,9.08615c-10.62833,15.54425-26.1236,21.39343-30.72574,22.94986a60.894,60.894,0,0,1-79.65186-50.07205,59.84318,59.84318,0,0,1,.12154-15.70193c17.31569-10.265,29.188-9.981,36.54991-8.16345,20.03436,4.94611,24.61237,25.67966,49.86432,36.437A71.08472,71.08472,0,0,0,243.78563,359.82542Z" transform="translate(-2.5 5.5)"/><circle class="cls-13" cx="198.6973" cy="265.79024" r="6.09131" transform="translate(-113.34319 390.91361) rotate(-74.3485)"/><circle class="cls-13" cx="226.70513" cy="234.85776" r="4.36594" transform="translate(-63.10595 395.29557) rotate(-74.3485)"/><circle class="cls-13" cx="209.05945" cy="262.78899" r="1.99777" transform="translate(-102.88664 398.69998) rotate(-74.3485)"/><circle class="cls-13" cx="210.43944" cy="191.37319" r="3.91431" transform="translate(-33.11121 347.87994) rotate(-74.3485)"/><circle class="cls-13" cx="244.88578" cy="180.60401" r="6.1131" transform="translate(2.41187 373.18522) rotate(-74.3485)"/><circle class="cls-14" cx="158.41621" cy="352.14425" r="5.19399" transform="translate(-225.90908 415.18308) rotate(-74.3485)"/><circle class="cls-14" cx="194.77062" cy="375.68551" r="6.76926" transform="translate(-222.03092 467.37966) rotate(-74.3485)"/><circle class="cls-14" cx="176.6226" cy="378.98893" r="1.88461" transform="translate(-238.4638 452.31677) rotate(-74.3485)"/><circle class="cls-14" cx="616.60112" cy="239.24683" r="4.69348" transform="translate(-38.93903 139.98734) rotate(-12.09307)"/><g class="cls-4"><circle class="cls-15" cx="547.53691" cy="244.1849" r="6.89819" transform="translate(-41.50619 125.62795) rotate(-12.09307)"/><line class="cls-10" x1="556.79938" y1="133.22623" x2="539.86505" y2="136.85448"/><line class="cls-10" x1="549.25732" y1="98.02512" x2="532.32306" y2="101.65337"/><line class="cls-10" x1="553.02838" y1="115.62567" x2="536.09406" y2="119.25394"/><line class="cls-10" x1="547.16223" y1="88.87403" x2="537.23083" y2="91.00188"/><line class="cls-10" x1="554.70422" y1="124.07514" x2="544.77283" y2="126.20299"/><line class="cls-10" x1="550.93323" y1="106.47458" x2="541.00183" y2="108.60243"/><path class="cls-16" d="M484.21019,78.065c0.14-11.96567,66.3172-25.39192,70.71863-15.15182,1.21387,2.82413-2.35724,7.24783-6.87195,11.46758q6.37015,31.28638,12.74017,62.57278c13.39154,8.70453,94.87756,62.40115,84.18567,91.24442-3.48779,9.40881-14.9458,11.21381-84.67609,26.53717-72.121,15.84869-83.37207,19.08386-90.51367,11.937-12.93958-12.94916,1.78711-46.65826,12.75458-72.51559a234.64667,234.64667,0,0,1,26.007-46.00977q-6.939-30.83132-13.87793-61.66264C489.18547,84.25812,484.17149,81.37362,484.21019,78.065Z" transform="translate(-2.5 5.5)"/><path class="cls-17" d="M600.28484,243.72426c-8.35889,1.90433-17.238,3.96225-36.05792,8.22321l-1.285.29086c-34.49951,7.79993-37.72235,7.74417-57.274,12.22888-0.00006,0-2.17407.49866-8.72028,1.76007-10.42273,2.00836-13.79071,2.31653-17.71411,1.73758-3.50262-.51682-5.25391-0.77527-7.04858-2.06378-6.2099-4.45853-5.14062-15.57175-4.57239-21.47824,0.74017-7.6929,3.24731-14.38287,8.23816-27.44623,1.78979-4.68466,3.36194-8.50641,4.43622-11.06091a98.14665,98.14665,0,0,1,35.64771-13.14206c36.877-5.651,61.64569,13.68115,84.63745-.39656a41.07784,41.07784,0,0,0,12.8255-12.7123,133.54064,133.54064,0,0,1,13.378,12.71857A90.8392,90.8392,0,0,1,638.25511,207.468c4.34918,7.30194,5.15985,11.26386,5.18439,14.593a20.48987,20.48987,0,0,1-.90991,6.36816C640.19987,235.10576,631.04576,236.71629,600.28484,243.72426Z" transform="translate(-2.5 5.5)"/><circle class="cls-15" cx="514.84483" cy="220.0158" r="7.5697" transform="translate(-37.16824 118.24261) rotate(-12.09307)"/><circle class="cls-18" cx="550.46916" cy="169.17917" r="7.79285" transform="translate(-25.7274 124.57778) rotate(-12.09307)"/><circle class="cls-18" cx="521.0037" cy="87.41845" r="6.05438" transform="translate(-9.25238 116.59037) rotate(-12.09307)"/><circle class="cls-18" cx="499.5891" cy="47.34329" r="3.37891" transform="translate(-1.33184 111.21468) rotate(-12.09307)"/><circle class="cls-18" cx="533.97734" cy="23.76336" r="7.30847" transform="translate(4.37128 117.89575) rotate(-12.09307)"/><circle class="cls-15" cx="506.38206" cy="206.75052" r="0.81183" transform="translate(-34.57696 116.17528) rotate(-12.09307)"/><circle class="cls-18" cx="545.91491" cy="156.17153" r="1.72809" transform="translate(-23.10336 123.335) rotate(-12.09307)"/></g><g class="cls-4"><circle class="cls-19" cx="165.77915" cy="26.10482" r="24.59844" transform="translate(75.33442 174.53807) rotate(-67.34536)"/><circle class="cls-20" cx="266.382" cy="80.36454" r="17.93573" transform="translate(87.11429 300.73893) rotate(-67.34536)"/><line class="cls-10" x1="192.07423" y1="70.27833" x2="178.39902" y2="52.82355"/><line class="cls-21" x1="193.46344" y1="98.00086" x2="175.62601" y2="122.32795"/><line class="cls-21" x1="219.77933" y1="83.41346" x2="244.82553" y2="84.95692"/><circle class="cls-22" cx="166.8215" cy="127.06809" r="15.25208" transform="translate(-17.198 237.57468) rotate(-67.34536)"/><circle class="cls-23" cx="204.64237" cy="79.68673" r="16.65259" transform="translate(49.78077 243.34619) rotate(-67.34536)"/><path class="cls-24" d="M172.40675,138.88073a10.9993,10.9993,0,0,1-14.0835-3.98837,16.62745,16.62745,0,0,0,19.574-9.46819A10.99783,10.99783,0,0,1,172.40675,138.88073Z" transform="translate(-2.5 5.5)"/><path class="cls-25" d="M204.13506,69.715a29.16561,29.16561,0,0,0-12.12192,4.29115,13.7063,13.7063,0,0,1,25.1022-2.87007A29.1706,29.1706,0,0,0,204.13506,69.715Z" transform="translate(-2.5 5.5)"/><path class="cls-26" d="M277.00969,91.33755a27.17929,27.17929,0,0,0-7.60742-25.58568c0.589,0.053,8.26337.87052,11.70612,7.37595C284.13976,78.85585,282.58107,86.51942,277.00969,91.33755Z" transform="translate(-2.5 5.5)"/><path class="cls-27" d="M152.13023,30.22071A40.61978,40.61978,0,0,0,157.96788,44.82a18.52961,18.52961,0,0,1-4.79813-33.74161A40.817,40.817,0,0,0,152.13023,30.22071Z" transform="translate(-2.5 5.5)"/></g><g class="cls-4"><path class="cls-19" d="M254.88133,481.4441c-9.70889-.40662-16.79358-8.08411-15.82411-17.14816s9.626-16.08229,19.33487-15.67567,16.79357,8.08411,15.82409,17.14816S264.59022,481.85072,254.88133,481.4441Z" transform="translate(-2.5 5.5)"/><path class="cls-20" d="M271.56588,401.451c-7.07915-.29648-12.24488-5.89446-11.538-12.50343s7.01869-11.72625,14.09784-11.42977,12.24488,5.89445,11.538,12.50342S278.645,401.74749,271.56588,401.451Z" transform="translate(-2.5 5.5)"/><line class="cls-10" x1="274.67552" y1="443.6003" x2="265.54778" y2="456.18151"/><line class="cls-21" x1="293.43011" y1="436.37034" x2="313.87832" y2="441.97896"/><line class="cls-21" x1="277.8976" y1="423.20972" x2="273.71295" y2="407.14563"/><path class="cls-22" d="M324.69224,451.397c-6.01992-.25212-10.41273-5.01249-9.81161-10.63259s5.96852-9.9717,11.98844-9.71958,10.41273,5.01249,9.81161,10.63259S330.71216,451.64911,324.69224,451.397Z" transform="translate(-2.5 5.5)"/><path class="cls-23" d="M284.12089,439.47615c-6.57269-.27527-11.36887-5.47276-10.71256-11.60892s6.51658-10.88735,13.08927-10.61208,11.36887,5.47277,10.71256,11.60892S290.69358,439.75142,284.12089,439.47615Z" transform="translate(-2.5 5.5)"/><path class="cls-24" d="M332.72637,435.00818a6.92929,6.92929,0,0,1,.20924,9.74858c-0.2-5.48972-4.71395-9.79182-10.60374-10.106A8.281,8.281,0,0,1,332.72637,435.00818Z" transform="translate(-2.5 5.5)"/><path class="cls-25" d="M278.56487,430.971a18.23163,18.23163,0,0,0,5.48653,6.61915c-5.43637.33347-9.89328-3.48562-9.95481-8.5302a9.26179,9.26179,0,0,1,2.72632-6.5567A17.71777,17.71777,0,0,0,278.56487,430.971Z" transform="translate(-2.5 5.5)"/><path class="cls-26" d="M278.15874,380.30143a20.92756,20.92756,0,0,0-15.98438,10.64017,10.07631,10.07631,0,0,1,2.61589-9.03437A11.65572,11.65572,0,0,1,278.15874,380.30143Z" transform="translate(-2.5 5.5)"/><path class="cls-27" d="M262.32262,472.64934a31.0825,31.0825,0,0,0,8.80727-7.01019c0.2461,6.80811-5.50934,12.81514-12.85513,13.41706a13.36571,13.36571,0,0,1-9.32071-2.66831A32.28093,32.28093,0,0,0,262.32262,472.64934Z" transform="translate(-2.5 5.5)"/></g><g class="cls-4"><path class="cls-19" d="M553.34641,428.17693a14.91291,14.91291,0,0,1,2.35786-21.15627,15.399,15.399,0,0,1,21.406,2.671,14.91291,14.91291,0,0,1-2.35787,21.15626A15.399,15.399,0,0,1,553.34641,428.17693Z" transform="translate(-2.5 5.5)"/><path class="cls-20" d="M615.88946,388.42083a10.87361,10.87361,0,0,1,1.71922-15.4259,11.228,11.228,0,0,1,15.608,1.94752,10.87361,10.87361,0,0,1-1.71921,15.4259A11.228,11.228,0,0,1,615.88946,388.42083Z" transform="translate(-2.5 5.5)"/><line class="cls-10" x1="592.28356" y1="420.76612" x2="578.7428" y2="422.78378"/><line class="cls-21" x1="607.75897" y1="428.40381" x2="615.68617" y2="445.26886"/><line class="cls-21" x1="607.63892" y1="409.96081" x2="615.90711" y2="397.07014"/><path class="cls-22" d="M613.02968,454.62326a9.24664,9.24664,0,0,1,1.462-13.11778,9.548,9.548,0,0,1,13.2726,1.65611,9.24664,9.24664,0,0,1-1.462,13.11778A9.548,9.548,0,0,1,613.02968,454.62326Z" transform="translate(-2.5 5.5)"/><path class="cls-23" d="M597.82695,420.65959a10.09571,10.09571,0,0,1,1.59622-14.32231,10.42478,10.42478,0,0,1,14.49135,1.80818,10.09571,10.09571,0,0,1-1.59623,14.32232A10.42477,10.42477,0,0,1,597.82695,420.65959Z" transform="translate(-2.5 5.5)"/><path class="cls-24" d="M628.47227,449.48393a6.64294,6.64294,0,0,1-6.34476,6.30533,10.09532,10.09532,0,0,0,.66166-13.30038A6.88937,6.88937,0,0,1,628.47227,449.48393Z" transform="translate(-2.5 5.5)"/><path class="cls-25" d="M600.302,411.65934a17.58623,17.58623,0,0,0-1.26412,7.76153,8.30791,8.30791,0,0,1,5.88666-14.25443A17.49171,17.49171,0,0,0,600.302,411.65934Z" transform="translate(-2.5 5.5)"/><path class="cls-26" d="M633.66788,379.33025a17.10658,17.10658,0,0,0-16.15886-3.67569c0.20351-.29809,2.9242-4.14376,7.48022-4.01365A9.51356,9.51356,0,0,1,633.66788,379.33025Z" transform="translate(-2.5 5.5)"/><path class="cls-27" d="M563.416,427.4572a25.53063,25.53063,0,0,0,9.6643,1.2991,11.60265,11.60265,0,0,1-19.75714-7.63885A25.83968,25.83968,0,0,0,563.416,427.4572Z" transform="translate(-2.5 5.5)"/></g><g class="cls-4"><path class="cls-10" d="M398.45222,173.38635c0.00189,33.29745-17.41986,72.48805-35.70154,72.5547-18.26727.06659-36.0932-38.93379-36.16217-72.32439-0.06952-33.64346,17.86462-72.85176,36.16217-72.785C381.01115,100.89821,398.45036,140.07641,398.45222,173.38635Z" transform="translate(-2.5 5.5)"/><path class="cls-10" d="M362.52028,137.45442c33.29745-.00189,72.48807,17.41986,72.55472,35.70154,0.06659,18.26727-38.93378,36.0932-72.3244,36.16217-33.64346.06952-72.85175-17.86462-72.785-36.16217C290.03215,154.89551,329.21034,137.4563,362.52028,137.45442Z" transform="translate(-2.5 5.5)"/><path class="cls-28" d="M337.11256,147.97864c23.54352-23.54619,63.57449-38.9391,76.54874-26.05913,12.964,12.86981-2.00861,53.05209-25.57056,76.71158-23.74036,23.83868-64.14618,38.88177-77.03729,25.89627C298.18843,211.5682,313.5602,171.53364,337.11256,147.97864Z" transform="translate(-2.5 5.5)"/><path class="cls-29" d="M337.11693,198.58467c-23.5462-23.54352-38.93909-63.57451-26.05914-76.54874,12.86981-12.964,53.05209,2.00861,76.71158,25.57056,23.83868,23.74036,38.88174,64.14618,25.89627,77.03732C400.7065,237.5088,360.672,222.137,337.11693,198.58467Z" transform="translate(-2.5 5.5)"/><circle class="cls-22" cx="360.02029" cy="178.55557" r="8.17983"/><circle class="cls-19" cx="309.2128" cy="230.22586" r="6.51061"/><circle class="cls-20" cx="371.45862" cy="129.25693" r="6.51061"/><circle class="cls-23" cx="423.52652" cy="193.76721" r="6.51061"/><path class="cls-30" d="M369.36336,174.64177a19.59582,19.59582,0,0,0-11.21442-7.36633,7.683,7.683,0,0,1,6.26691-.98952C367.53951,167.31549,369.69084,170.75242,369.36336,174.64177Z" transform="translate(-2.5 5.5)"/><path class="cls-31" d="M309.25987,226.13289a7.91862,7.91862,0,0,0,4.98419,3.45059c-3.18335,1.20258-6.51416-.2915-7.51459-2.83716a5.57465,5.57465,0,0,1,1.45691-5.82767A7.81578,7.81578,0,0,0,309.25987,226.13289Z" transform="translate(-2.5 5.5)"/><path class="cls-26" d="M371.00136,120.89766a11.27474,11.27474,0,0,0-3.22467,5.17224,6.67476,6.67476,0,0,1,9.29089-7.98186A11.31514,11.31514,0,0,0,371.00136,120.89766Z" transform="translate(-2.5 5.5)"/><path class="cls-25" d="M432.11675,189.60118a6.48334,6.48334,0,0,1-4.74976,5.00516,17.40187,17.40187,0,0,0,2.45148-11.28714A6.48029,6.48029,0,0,1,432.11675,189.60118Z" transform="translate(-2.5 5.5)"/></g><g class="cls-4"><path class="cls-10" d="M584.76254,319.24747c0.001,18.68055-9.64329,40.66727-19.76366,40.70466-10.1124.03736-19.98047-21.84265-20.01865-40.57545-0.03848-18.87466,9.8895-40.87131,20.01865-40.83386C575.10751,278.58015,584.76151,300.55992,584.76254,319.24747Z" transform="translate(-2.5 5.5)"/><path class="cls-10" d="M564.87133,299.08893c18.4328-.00106,40.12794,9.7729,40.16484,20.02929,0.03686,10.24831-21.553,20.249-40.03734,20.28771-18.62435.039-40.32927-10.02242-40.29232-20.28771C524.74336,308.87373,546.43162,299.09,564.87133,299.08893Z" transform="translate(-2.5 5.5)"/><path class="cls-28" d="M550.80613,304.99322c13.03322-13.20989,35.19357-21.84563,42.37585-14.6197,7.1766,7.22023-1.11192,29.7633-14.15535,43.03675-13.14219,13.374-35.51,21.81346-42.6463,14.52833C529.25851,340.66826,537.768,318.20806,550.80613,304.99322Z" transform="translate(-2.5 5.5)"/><path class="cls-29" d="M550.80855,333.38424c-13.03471-13.20839-21.5559-35.66659-14.42582-42.94539,7.12447-7.27307,29.36858,1.12687,42.466,14.3456,13.19662,13.31882,21.52416,35.98731,14.33566,43.2195C586.01046,355.22146,563.84814,346.59757,550.80855,333.38424Z" transform="translate(-2.5 5.5)"/><ellipse class="cls-22" cx="562.37134" cy="324.5619" rx="4.5282" ry="4.58905"/><ellipse class="cls-19" cx="534.24533" cy="353.54997" rx="3.60415" ry="3.65258"/><ellipse class="cls-20" cx="568.70337" cy="296.90436" rx="3.60415" ry="3.65258"/><ellipse class="cls-23" cx="597.52712" cy="333.09593" rx="3.60415" ry="3.65258"/><path class="cls-30" d="M568.65952,319.95178a10.83861,10.83861,0,0,0-6.20808-4.13266,4.2057,4.2057,0,0,1,3.46923-.55514A4.44619,4.44619,0,0,1,568.65952,319.95178Z" transform="translate(-2.5 5.5)"/><path class="cls-31" d="M535.38744,348.83934a4.384,4.384,0,0,0,2.75915,1.93585,3.20137,3.20137,0,0,1-4.15993-1.5917,3.15634,3.15634,0,0,1,.80652-3.26944A4.43338,4.43338,0,0,0,535.38744,348.83934Z" transform="translate(-2.5 5.5)"/><path class="cls-26" d="M569.56629,289.80025a6.33818,6.33818,0,0,0-1.78511,2.90173,3.75414,3.75414,0,0,1,2.43431-4.686,3.65028,3.65028,0,0,1,2.70894.20806A6.22752,6.22752,0,0,0,569.56629,289.80025Z" transform="translate(-2.5 5.5)"/><path class="cls-25" d="M603.39854,328.34432a3.61688,3.61688,0,0,1-2.62937,2.808,9.86968,9.86968,0,0,0,1.35709-6.33231A3.66191,3.66191,0,0,1,603.39854,328.34432Z" transform="translate(-2.5 5.5)"/></g><g class="cls-4"><path class="cls-10" d="M175.61919,445.65642c0.00113,20.41476-10.42094,44.44261-21.35745,44.48348-10.92788.04083-21.59175-23.87041-21.633-44.34227-0.04159-20.6269,10.687-44.6656,21.633-44.62468C165.18556,401.21375,175.61807,425.234,175.61919,445.65642Z" transform="translate(-2.5 5.5)"/><path class="cls-10" d="M154.12391,423.62646c19.91927-.00116,43.364,10.68016,43.40383,21.88871,0.03984,11.19971-23.291,22.12884-43.266,22.17112-20.12626.04262-43.58152-10.95285-43.54159-22.17112C110.75992,434.31964,134.19717,423.62761,154.12391,423.62646Z" transform="translate(-2.5 5.5)"/><path class="cls-28" d="M138.92445,430.07889c14.08425-14.43623,38.03166-23.87367,45.79314-15.97692,7.75534,7.89052-1.20159,32.52638-15.29687,47.03207-14.202,14.61556-38.37365,23.83852-46.0854,15.87707C115.63918,469.06582,124.83491,444.52052,138.92445,430.07889Z" transform="translate(-2.5 5.5)"/><path class="cls-29" d="M138.92706,461.10558c-14.08586-14.43459-23.29422-38.9777-15.58915-46.93223,7.699-7.94827,31.73693,1.23148,45.89055,15.67737,14.26082,14.55527,23.25991,39.32819,15.49172,47.23178C176.96774,484.97007,153.0182,475.54558,138.92706,461.10558Z" transform="translate(-2.5 5.5)"/><ellipse class="cls-22" cx="151.62392" cy="450.95362" rx="4.89336" ry="5.01507"/><ellipse class="cls-19" cx="121.22976" cy="482.63281" rx="3.8948" ry="3.99167"/><ellipse class="cls-20" cx="158.46657" cy="420.72849" rx="3.8948" ry="3.99167"/><ellipse class="cls-23" cx="189.61474" cy="460.27992" rx="3.8948" ry="3.99167"/><path class="cls-30" d="M158.21759,446.42612a11.70621,11.70621,0,0,0-6.70871-4.51632,4.50239,4.50239,0,0,1,3.749-.60668A4.86522,4.86522,0,0,1,158.21759,446.42612Z" transform="translate(-2.5 5.5)"/><path class="cls-31" d="M122.26236,477.99546A4.73868,4.73868,0,0,0,125.244,480.111a3.24269,3.24269,0,0,1-3.62384-5.31243A4.89023,4.89023,0,0,0,122.26236,477.99546Z" transform="translate(-2.5 5.5)"/><path class="cls-26" d="M159.19748,413.47547a6.93948,6.93948,0,0,0-1.92907,3.17111,4.11183,4.11183,0,0,1,2.63062-5.12108,3.90456,3.90456,0,0,1,2.9274.22738A6.69773,6.69773,0,0,0,159.19748,413.47547Z" transform="translate(-2.5 5.5)"/><path class="cls-25" d="M195.758,455.59778a3.93466,3.93466,0,0,1-2.84141,3.06868,10.88555,10.88555,0,0,0,1.46653-6.92017A4.02658,4.02658,0,0,1,195.758,455.59778Z" transform="translate(-2.5 5.5)"/></g><path class="cls-32" d="M316.40088,403.361c-2.3504.41351-5.61356-.91458-6.06332-3.15607-0.44284-2.207,1.97491-4.63669,4.24545-5.22269,1.81546-.46854,2.40088.5347,6.86755,1.25934,2.98032,0.48346,4.60913.34335,4.69769,0.85577,0.09073,0.52481-1.57858.89847-4.08163,2.40045C318.46545,401.6587,318.373,403.014,316.40088,403.361Z" transform="translate(-2.5 5.5)"/><g class="cls-4"><path class="cls-10" d="M354.45911,328.19625c-6.54239,10.71106-12.05627,20.072-16.46487,27.69955-4.39127,7.59756-5.61389,9.89041-6.0051,13.28485-0.968,8.39917,4.446,12.333,1.55157,19.66537-0.55453,1.40472-2.51389,3.57816-2.14908,6.42334a3.742,3.742,0,0,0,1.43475,2.78583,3.80258,3.80258,0,0,0,3.25168-.00018c2.68405-1.04251,3.22015-4.00513,4.6058-5.68948,4.92041-5.981,11.49023-2.46463,18.69254-7.48691,2.77432-1.9346,4.15369-4.098,8.59061-11.45734,4.86383-8.06741,10.33112-17.28531,16.255-27.53369" transform="translate(-2.5 5.5)"/><path class="cls-19" d="M353.82663,326.94643q18.04015-29.97253,36.08032-59.9451c0.30081-.89584,3.93225-11.10266,14.4111-12.51044a18.73015,18.73015,0,0,1,12.40018,2.41733,18.53211,18.53211,0,0,1,7.51184,9.12717c3.96112,9.83923-3.06277,18.17245-3.75674,18.96683q-17.714,30.17427-35.428,60.34857" transform="translate(-2.5 5.5)"/><line class="cls-5" x1="343.42897" y1="327.59702" x2="389.83104" y2="355.17881"/><path class="cls-33" d="M342.75076,368.69237c2.78323,3.05066,5.82385,2.93683,9.68979,6.345a21.35114,21.35114,0,0,1,5.83914,8.82925,14.86314,14.86314,0,0,1-2.97421,1.56451,23.33686,23.33686,0,0,1-4.41708,1.071c-3.35889.62775-3.017,0.43533-4.28619,0.75662a13.46561,13.46561,0,0,0-4.94238,2.09424,11.56831,11.56831,0,0,0-1.72986,1.63986,12.43956,12.43956,0,0,0-1.1694,1.6709c-0.96646,1.57425-.95929,2.05573-1.77643,2.9462a4.19543,4.19543,0,0,1-1.165.9436,2.38536,2.38536,0,0,1-2.14365.26117,2.29684,2.29684,0,0,1-.86829-1.7998,3.79835,3.79835,0,0,1,.18976-1.67429,39.05714,39.05714,0,0,1,2.15677-4.72876c0.73672-1.58456.64261-2.9534,0.46963-5.47009-0.25879-3.76471-1.4595-4.64386-2.09009-9.588a16.58988,16.58988,0,0,1-.20236-3.291,15.2015,15.2015,0,0,1,2.31418-7.15921q1.86282-3.2753,3.72568-6.55054C339.07,363.27211,340.98587,366.75789,342.75076,368.69237Z" transform="translate(-2.5 5.5)"/><path class="cls-31" d="M419.42542,267.39684h0a5.81177,5.81177,0,0,1,2.02626,7.9654h0L407.70018,298.497a5.81175,5.81175,0,0,1-7.96533,2.02627h0a5.81176,5.81176,0,0,1-2.02625-7.96535l13.75151-23.13475a5.81176,5.81176,0,0,1,7.96535-2.02625Z" transform="translate(-2.5 5.5)"/></g><g class="cls-4"><path class="cls-10" d="M230.37783,150.72308c5.59078-3.88392,10.378-7.32315,14.23787-10.1441,3.8447-2.80986,4.95522-3.68043,5.91117-5.28172,2.36537-3.96222.62757-7.11008,3.68646-10.11773,0.586-.5762,2.0269-1.22516,2.4922-2.7199a2.0597,2.0597,0,0,0-.067-1.70085,1.98085,1.98085,0,0,0-1.57709-.716c-1.53707-.07283-2.46582,1.28189-3.51805,1.81407-3.73643,1.8897-6.129-1.30516-10.75577-.39458-1.78222.35077-2.93954,1.12247-6.75261,3.80385-4.18,2.93936-8.91227,6.31775-14.09864,10.10787" transform="translate(-2.5 5.5)"/><path class="cls-19" d="M230.40246,151.48367L199.37257,173.338c-0.34811.3791-4.41327,4.65339-9.81323,3.04558a9.77371,9.77371,0,0,1-5.46837-3.93246,10.06686,10.06686,0,0,1-1.583-6.19155c0.29984-5.76359,5.58741-8.3594,6.10329-8.60147l30.80461-22.19851" transform="translate(-2.5 5.5)"/><line class="cls-5" x1="230.63815" y1="161.13363" x2="214.35928" y2="137.20353"/><path class="cls-33" d="M245.19731,133.17007c-0.66124-2.12947-2.16162-2.74248-3.26727-5.28811a11.683,11.683,0,0,1-.839-5.67509,7.85193,7.85193,0,0,1,1.79563-.12277,12.17968,12.17968,0,0,1,2.384.44031c1.77074,0.42763,1.56149.448,2.24957,0.56777a7.081,7.081,0,0,0,2.86975.04732,6.229,6.229,0,0,0,1.20913-.43426,6.7964,6.7964,0,0,0,.94432-0.57311,9.43567,9.43567,0,0,1,1.52659-1.07341,2.24627,2.24627,0,0,1,.778-0.21253,1.24425,1.24425,0,0,1,1.09861.34224,1.26589,1.26589,0,0,1,.01485,1.08593,2.12242,2.12242,0,0,1-.47.79053,21.58473,21.58473,0,0,1-2.11342,1.8758,5.72243,5.72243,0,0,0-1.46251,2.61587c-0.72428,1.9285-.34038,2.63-1.15057,5.22667a9.28033,9.28033,0,0,1-.64471,1.68058,8.44369,8.44369,0,0,1-2.73838,3.04936q-1.64278,1.218-3.28556,2.43593C245.759,136.67517,245.61661,134.5204,245.19731,133.17007Z" transform="translate(-2.5 5.5)"/><path class="cls-31" d="M185.14554,166.6408h0a3.21784,3.21784,0,0,1,.81526-4.406h0l11.89151-8.47239a3.05367,3.05367,0,0,1,4.32052.74682h0a3.21784,3.21784,0,0,1-.81526,4.406l-11.89151,8.47239a3.05367,3.05367,0,0,1-4.32053-.74684v0Z" transform="translate(-2.5 5.5)"/></g><g class="cls-4"><path class="cls-10" d="M594.92256,59.65317c4.5523,5.06144,8.563,9.38119,11.84428,12.85818,3.26841,3.46331,4.271,4.4563,5.97919,5.20459,4.22682,1.85154,7.13276-.26611,10.49918,2.39283,0.64493,0.50941,1.46892,1.85786,3.01009,2.13267a2.0597,2.0597,0,0,0,1.67913-.2791,1.98085,1.98085,0,0,0,.51324-1.65422c-0.11988-1.53412-1.58006-2.28624-2.23959-3.2637-2.34193-3.47091.52879-6.24411-.953-10.72073-0.57079-1.7244-1.48111-2.77617-4.61809-6.22416-3.4388-3.77975-7.38224-8.05264-11.79092-12.72457" transform="translate(-2.5 5.5)"/><path class="cls-19" d="M594.171,59.77268L568.60939,31.718c-0.41964-.298-5.16855-3.797-4.24835-9.35557a9.77371,9.77371,0,0,1,3.21807-5.917,10.06686,10.06686,0,0,1,5.94511-2.3445c5.75587-.423,8.99226,4.49866,9.29692,4.98023q12.93748,13.89409,25.875,27.78817" transform="translate(-2.5 5.5)"/><line class="cls-5" x1="587.89557" y1="68.50567" x2="609.60311" y2="49.36321"/><path class="cls-33" d="M614.19034,72.16228c2.03011-.92224,2.45077-2.48748,4.83822-3.90266a11.683,11.683,0,0,1,5.52571-1.54178,7.85193,7.85193,0,0,1,.34626,1.7662,12.17969,12.17969,0,0,1-.13885,2.42036c-0.20293,1.81031-.24929,1.60525-0.28212,2.3029a7.081,7.081,0,0,0,.31177,2.85316,6.229,6.229,0,0,0,.582,1.14536,6.79639,6.79639,0,0,0,.68666.86527,9.43567,9.43567,0,0,1,1.25581,1.38044,2.24627,2.24627,0,0,1,.30811.74535,1.24425,1.24425,0,0,1-.20223,1.13277,1.26589,1.26589,0,0,1-1.07556.15048,2.12242,2.12242,0,0,1-.84308-0.36746,21.58473,21.58473,0,0,1-2.12526-1.86237,5.72243,5.72243,0,0,0-2.77816-1.12405c-2.00391-.47753-2.65189-0.009-5.3295-0.48821a9.28033,9.28033,0,0,1-1.748-.42958,8.44369,8.44369,0,0,1-3.36774-2.33573q-1.41378-1.47764-2.82752-2.95529C610.78294,73.15769,612.903,72.74709,614.19034,72.16228Z" transform="translate(-2.5 5.5)"/><path class="cls-31" d="M573.47564,16.76538h0a3.21784,3.21784,0,0,1,4.47333.25812h0l9.89238,10.73919a3.05367,3.05367,0,0,1-.2009,4.38h0a3.21784,3.21784,0,0,1-4.47331-.25812l-9.89238-10.73919a3.05367,3.05367,0,0,1,.20091-4.38h0Z" transform="translate(-2.5 5.5)"/></g><path class="cls-34" d="M81.41432,443.64518l8.47111-1.92609a0.9574,0.9574,0,0,1,1.14584.7213h0a0.9574,0.9574,0,0,1-.7213,1.14584l-8.47111,1.92609a0.9574,0.9574,0,0,1-1.14584-.7213h0A0.9574,0.9574,0,0,1,81.41432,443.64518Z" transform="translate(-2.5 5.5)"/><g class="cls-4"><path class="cls-19" d="M10.48773,449.17973l77.71684,9.14771a5.83134,5.83134,0,0,1,5.12758,6.43767h0a5.79157,5.79157,0,0,1-6.44958,5.075L9.16573,460.6924a5.83137,5.83137,0,0,1-5.12757-6.4377h0A5.79154,5.79154,0,0,1,10.48773,449.17973Z" transform="translate(-2.5 5.5)"/><path class="cls-35" d="M31.58666,417.98778l43.54571,5.12557A14.1288,14.1288,0,0,1,87.556,438.71121l-0.27168,2.36594a14.0323,14.0323,0,0,1-15.6266,12.2961L28.1119,448.24767a14.12873,14.12873,0,0,1-12.42353-15.59776l0.27169-2.366a14.03228,14.03228,0,0,1,15.62658-12.29613h0Z" transform="translate(-2.5 5.5)"/><path class="cls-36" d="M58.07951,323.87037l11.96991,1.40893A12.02029,12.02029,0,0,1,80.619,338.54941l-8.03985,70.01488a11.93826,11.93826,0,0,1-13.29464,10.46116l-11.96991-1.40893A12.02028,12.02028,0,0,1,36.745,404.34642l8.03985-70.01488A11.93825,11.93825,0,0,1,58.07951,323.87037Z" transform="translate(-2.5 5.5)"/><path class="cls-22" d="M71.76553,258.19991c-1.41388,2.95159-3.64895,7.36358-6.76005,12.51334C58.35114,281.728,56.503,281.54138,54.22083,287.14111c-3.91515,9.60678-2.799,20.89787,2.31861,28.46506,1.38059,2.0414,3.71815,5.39427,7.58415,6.03726,4.51249,0.75054,8.33861-2.65136,10.45319-4.53148,0.9753-.86715,7.96895-7.28658,8.20032-17.34945,0.15523-6.75179-2.86222-9.332-6.244-18.2313A76.04537,76.04537,0,0,1,71.76553,258.19991Z" transform="translate(-2.5 5.5)"/><path class="cls-19" d="M82.92944,434.61089l-0.96849,8.4341a1.472,1.472,0,0,1-1.63924,1.28987h0a1.48211,1.48211,0,0,1-1.30324-1.63621v0l0.96849-8.4341a1.472,1.472,0,0,1,1.63924-1.28987h0a1.48211,1.48211,0,0,1,1.30324,1.63621v0Z" transform="translate(-2.5 5.5)"/><path class="cls-37" d="M75.35682,289.31469c2.0798,3.95519,4.76946,7.26915,3.4494,10.0621a4.82,4.82,0,0,1-4.10294,2.603c-2.525.03585-4.3203-2.40935-5.19272-3.59762-5.21129-7.09782.53436-22.6204,1.48194-25.11061A40.08675,40.08675,0,0,0,75.35682,289.31469Z" transform="translate(-2.5 5.5)"/><path class="cls-38" d="M51.81912,351.31908h0a6.65923,6.65923,0,0,1,5.85553,7.35162L52.9033,400.22213a6.61378,6.61378,0,0,1-7.36522,5.79546h0a6.65923,6.65923,0,0,1-5.85553-7.35162l4.77138-41.55143A6.61378,6.61378,0,0,1,51.81912,351.31908Z" transform="translate(-2.5 5.5)"/></g><g class="cls-4"><path class="cls-19" d="M292.69707,1.34775L268.84993,47.69161a3.91084,3.91084,0,0,1-5.05828,1.89265h0a3.62262,3.62262,0,0,1-1.50589-5.011L286.13291-1.77062a3.91086,3.91086,0,0,1,5.0583-1.89264h0A3.6226,3.6226,0,0,1,292.69707,1.34775Z" transform="translate(-2.5 5.5)"/><path class="cls-35" d="M306.33828,20.654l-13.36185,25.967c-2.37679,4.619-7.86387,6.67207-12.25572,4.58568l-1.349-.64085c-4.39182-2.08637-6.02534-7.52213-3.64856-12.1411L289.085,12.45771c2.37678-4.619,7.86382-6.672,12.25564-4.58566l1.349,0.64086c4.39184,2.08638,6.02536,7.52213,3.64858,12.1411h0Z" transform="translate(-2.5 5.5)"/><path class="cls-36" d="M356.29093,55.86909L352.618,63.00695a8.06152,8.06152,0,0,1-10.42674,3.90134L302.271,47.94379a7.46737,7.46737,0,0,1-3.10409-10.32928l3.67292-7.13786a8.06152,8.06152,0,0,1,10.42674-3.90134l39.92029,18.9645A7.46736,7.46736,0,0,1,356.29093,55.86909Z" transform="translate(-2.5 5.5)"/><path class="cls-22" d="M392.28064,77.46568a86.53884,86.53884,0,0,1-5.87559-6.68881c-5.00545-6.324-4.45682-7.4323-7.26189-9.965a19.08375,19.08375,0,0,0-17.55148-4.247c-1.546.44808-4.10164,1.22741-5.40017,3.49524-1.51569,2.64707-.38866,5.6979.23422,7.384a14.81769,14.81769,0,0,0,8.42367,8.54724c3.99633,1.44448,6.25129.08943,12.367-.22956A47.01668,47.01668,0,0,1,392.28064,77.46568Z" transform="translate(-2.5 5.5)"/><path class="cls-19" d="M284.26431,49.15791l-4.80886-2.28449a0.92073,0.92073,0,0,1-.38274-1.27361h0a0.994,0.994,0,0,1,1.28562-.481h0l4.80886,2.28449a0.92073,0.92073,0,0,1,.38274,1.27361h0a0.994,0.994,0,0,1-1.28562.481h0Z" transform="translate(-2.5 5.5)"/><path class="cls-37" d="M372.84536,73.47834c-2.8545.49929-5.47024,1.50464-6.82631,0.12872a3.056,3.056,0,0,1-.58436-3.06289c0.57584-1.5722,2.46109-2.19669,3.37724-2.50016,5.4724-1.81271,13.38546,4.84826,14.6488,5.93286A25.0856,25.0856,0,0,0,372.84536,73.47834Z" transform="translate(-2.5 5.5)"/><path class="cls-38" d="M341.37579,46.50756h0a4.46608,4.46608,0,0,1-5.7764,2.16134L311.90807,37.41413a4.13692,4.13692,0,0,1-1.71966-5.72241h0a4.46608,4.46608,0,0,1,5.7764-2.16134l23.69132,11.25478A4.13692,4.13692,0,0,1,341.37579,46.50756Z" transform="translate(-2.5 5.5)"/></g><g class="cls-4"><path class="cls-16" d="M35.16284,68.04855L6.00046,209.57292c0.37778,5.8869,2.12351,19.36145,12.27945,30.3215,3.03733,3.27783,7.58357,8.05759,15.09993,9.97351,9.13971,2.32974,16.84019-1.06128,20.44572-2.649C67.96829,240.991,74.0554,228.02681,75.77525,223.9507l29.95628-142.047c8.12691-2.716,9.938-4.93834,9.92365-6.53268-0.02953-3.28252-7.81425-5.84537-43.2213-13.36645-33.333-7.08051-41.67828-8.04736-43.27115-4.7992C28.37607,58.80958,29.0435,61.83547,35.16284,68.04855Z" transform="translate(-2.5 5.5)"/><path class="cls-39" d="M62.59282,238.82228a41.80522,41.80522,0,0,1-19.75967,9.49292,30.6004,30.6004,0,0,1-13.53357-2.61914C10.51,237.20665,8.52727,211.8537,8.43286,210.36726q7.24186-35.55606,14.48373-71.11211c3.44109-2.16357,8.77507-4.72839,14.90771-4.04955,12.38927,1.37138,16.07866,14.6571,29.88744,18.70584,4.40233,1.29077,11.14751,2.02808,20.62418-1.34561L73.79015,223.15648A41.65054,41.65054,0,0,1,62.59282,238.82228Z" transform="translate(-2.5 5.5)"/><circle class="cls-40" cx="36.88457" cy="165.21061" r="7.62077" transform="translate(-134.87048 173.49356) rotate(-78.35665)"/><circle class="cls-40" cx="55.93634" cy="213.92898" r="7.82674" transform="translate(-167.37961 231.03938) rotate(-78.35665)"/><circle class="cls-40" cx="43.02665" cy="222.42736" r="3.10219" transform="translate(-186.00738 225.17858) rotate(-78.35665)"/><circle class="cls-41" cx="76.41403" cy="110.12835" r="7.48344" transform="translate(-49.37008 168.24381) rotate(-78.35656)"/><circle class="cls-41" cx="49.91609" cy="73.05331" r="3.98203" transform="translate(-34.20801 112.69873) rotate(-78.35665)"/><circle class="cls-41" cx="57.11433" cy="67.03607" r="1.8537" transform="translate(-22.56908 114.946) rotate(-78.35665)"/><circle class="cls-41" cx="94.12999" cy="36.74113" r="6.72822" transform="translate(36.64754 127.01905) rotate(-78.35656)"/><circle class="cls-41" cx="57.41175" cy="15.92584" r="4.18799" transform="translate(27.72684 74.44208) rotate(-78.35665)"/></g></svg>