<svg id="Layer_1" data-name="Layer 1" xmlns="http://www.w3.org/2000/svg" viewBox="0 0 637.62322 498.57985"><defs><style>.cls-1{opacity:0.7;}.cls-2,.cls-28{fill:#f6ec13;}.cls-2,.cls-7{stroke:#f6ec13;}.cls-10,.cls-11,.cls-12,.cls-13,.cls-16,.cls-17,.cls-18,.cls-19,.cls-2,.cls-24,.cls-25,.cls-29,.cls-3,.cls-30,.cls-32,.cls-4,.cls-5,.cls-6,.cls-7,.cls-8,.cls-9{stroke-miterlimit:10;}.cls-10,.cls-11,.cls-12,.cls-16,.cls-17,.cls-18,.cls-19,.cls-2,.cls-24,.cls-25,.cls-29,.cls-3,.cls-30,.cls-4,.cls-5,.cls-6,.cls-9{stroke-width:3px;}.cls-3{fill:#ea3534;}.cls-3,.cls-6{stroke:#ea3534;}.cls-20,.cls-4{fill:#e8e115;}.cls-4{stroke:#e8e115;}.cls-10,.cls-11,.cls-18,.cls-24,.cls-25,.cls-5,.cls-6,.cls-7,.cls-8,.cls-9{fill:none;}.cls-16,.cls-5,.cls-8{stroke:#488ecc;}.cls-9{stroke:#7e7e7f;}.cls-10,.cls-12,.cls-17{stroke:#919091;}.cls-11{stroke:#010101;}.cls-12,.cls-14{fill:#fff;}.cls-13,.cls-15,.cls-19,.cls-32{fill:#6abf6b;}.cls-13,.cls-19{stroke:#6abf6b;}.cls-13,.cls-32{stroke-width:2px;}.cls-16,.cls-31{fill:#488ecc;}.cls-17{fill:#919091;}.cls-18{stroke:#7e7f7f;}.cls-21{fill:#3fb762;}.cls-22{fill:#c43030;}.cls-23{fill:#4285b8;}.cls-24{stroke:#7d7c7d;}.cls-25{stroke:#7e7d7e;}.cls-26{fill:#e8e117;}.cls-27{fill:#4285b9;}.cls-29{fill:#4285ba;stroke:#4285ba;}.cls-30{fill:#4285bb;stroke:#4285bb;}.cls-32{stroke:#6abf6c;}.cls-33{fill:#e6e7e8;}.cls-34{fill:#6abf6c;}</style></defs><title>background</title><g class="cls-1"><rect class="cls-2" x="285.5596" y="362.97479" width="39.87872" height="90.56425" rx="19.93933" ry="19.93933" transform="translate(-318.67326 278.43777) rotate(-42.36755)"/><path class="cls-3" d="M336.01389,441.713l0,0a19.998,19.998,0,0,1-28.16872-1.29512l-3.64129-3.99226q-6.84109-7.49626-13.68217-14.9926l29.48048-26.765q6.83276,7.442,13.66557,14.884l3.64129,3.99226A19.998,19.998,0,0,1,336.01389,441.713Z" transform="translate(-123.34041 -34.0547)"/><rect class="cls-4" x="278.66482" y="387.95915" width="9.33229" height="27.51415" rx="4.66614" ry="4.66614" transform="translate(-320.05504 261.79091) rotate(-42.36755)"/></g><g class="cls-1"><line class="cls-5" x1="447.37683" y1="364.11463" x2="517.70787" y2="350.35576"/><line class="cls-6" x1="455.50244" y1="380.77366" x2="515.71743" y2="369.18612"/><line class="cls-5" x1="469.54411" y1="396.76312" x2="508.99923" y2="388.75774"/><line class="cls-5" x1="476.27997" y1="431.91447" x2="515.75765" y2="423.7946"/><line class="cls-6" x1="469.51425" y1="451.85189" x2="529.97089" y2="440.01423"/><line class="cls-5" x1="468.41303" y1="470.91884" x2="538.74848" y2="456.67619"/><line class="cls-7" x1="450.76123" y1="372.33761" x2="516.93962" y2="359.46141"/><line class="cls-7" x1="462.17885" y1="389.53966" x2="512.94797" y2="379.49254"/><line class="cls-8" x1="479.21454" y1="403.77166" x2="502.63072" y2="399.12157"/><line class="cls-8" x1="445.01742" y1="355.94777" x2="516.02895" y2="341.87201"/><line class="cls-8" x1="482.63788" y1="421.5312" x2="506.49494" y2="417.03584"/><line class="cls-7" x1="471.94962" y1="442.35646" x2="524.03052" y2="432.04975"/><line class="cls-7" x1="468.38702" y1="460.91372" x2="534.46371" y2="448.00029"/><line class="cls-8" x1="469.42325" y1="479.2393" x2="540.43423" y2="465.19445"/><path class="cls-9" d="M566.81083,380.41465a76.971,76.971,0,0,0,18.70843,43.1797,75.98472,75.98472,0,0,0,30.67443,20.813,75.37234,75.37234,0,0,1,48.94251,63.42417" transform="translate(-123.34041 -34.0547)"/><path class="cls-10" d="M637.14039,366.49656a76.971,76.971,0,0,1-.852,47.05068,75.98472,75.98472,0,0,1-20.43508,30.9275,75.37234,75.37234,0,0,0-21.09648,77.28476" transform="translate(-123.34041 -34.0547)"/></g><g class="cls-1"><line class="cls-11" x1="380.81741" y1="340.50781" x2="364.48207" y2="335.94108"/><line class="cls-11" x1="390.54073" y1="305.72716" x2="374.20538" y2="301.16043"/><line class="cls-11" x1="385.67907" y1="323.11749" x2="369.34373" y2="318.55076"/><line class="cls-11" x1="392.95207" y1="296.62349" x2="383.37194" y2="293.94526"/><line class="cls-11" x1="383.22875" y1="331.40415" x2="373.64862" y2="328.72592"/><line class="cls-11" x1="388.09041" y1="314.01382" x2="378.51028" y2="311.33559"/><path class="cls-12" d="M464.375,291.26539c5.44649-10.38089,69.13379,7.95116,68.21736,19.07092-0.25306,3.0706-5.387,5.36165-11.24372,7.03706q-8.68106,30.00688-17.36208,60.01377c17.21285,16.65516,24.78971,40.43077,19.212,62.02263-8.1164,31.41918-42.81973,53.30954-75.94392,44.41881-33.68426-9.041-52.60145-46.38766-43.126-77.70612,6.43443-21.2672,25.29912-37.56552,48.67667-42.86085q8.32821-30.10943,16.65644-60.21889C465.83924,298.74069,462.89846,294.0796,464.375,291.26539Z" transform="translate(-123.34041 -34.0547)"/><path class="cls-13" d="M517.75274,447.60644a58.02516,58.02516,0,0,1-5.00918,9.13332,61.74662,61.74662,0,0,1-30.27426,23.19,57.092,57.092,0,0,1-65.73083-19.7051,60.73752,60.73752,0,0,1-11.92878-45.6282c17.04629-10.39642,28.69278-10.192,35.90553-8.42144,19.62831,4.8183,24.00358,25.551,48.71835,36.15379A68.0509,68.0509,0,0,0,517.75274,447.60644Z" transform="translate(-123.34041 -34.0547)"/><ellipse class="cls-13" cx="474.04329" cy="353.73914" rx="6.11065" ry="5.96578" transform="translate(-117.60443 680.98306) rotate(-74.38107)"/><ellipse class="cls-13" cx="501.71817" cy="318.56752" rx="4.3798" ry="4.27597" transform="translate(-63.50781 681.93393) rotate(-74.38107)"/><ellipse class="cls-13" cx="484.24903" cy="346.658" rx="2.0041" ry="1.95659" transform="translate(-103.3268 685.6373) rotate(-74.38107)"/><ellipse class="cls-13" cx="485.97549" cy="280.13689" rx="3.92672" ry="3.83362" transform="translate(-38.00043 638.68891) rotate(-74.38107)"/><ellipse class="cls-13" cx="519.82059" cy="271.12301" rx="6.13251" ry="5.98712" transform="translate(-4.58669 664.69724) rotate(-74.38107)"/><ellipse class="cls-14" cx="425.2757" cy="428.53259" rx="5.21045" ry="5.08693" transform="translate(-225.27353 688.67249) rotate(-74.38107)"/><ellipse class="cls-14" cx="469.59676" cy="459.81393" rx="6.79074" ry="6.62974" transform="translate(-223.01162 754.21614) rotate(-74.38107)"/><ellipse class="cls-14" cx="456.66728" cy="465.21354" rx="1.8906" ry="1.84578" transform="translate(-237.66022 745.70994) rotate(-74.38107)"/></g><g class="cls-1"><circle class="cls-14" cx="661.05378" cy="306.46743" r="6.89821" transform="translate(-172.87572 111.23726) rotate(-12.09307)"/><line class="cls-10" x1="549.47582" y1="155.95411" x2="532.54152" y2="159.58236"/><line class="cls-10" x1="541.9338" y1="120.753" x2="524.9995" y2="124.38126"/><line class="cls-10" x1="545.70481" y1="138.35355" x2="528.77051" y2="141.98181"/><line class="cls-10" x1="539.83869" y1="111.60191" x2="529.90729" y2="113.72976"/><line class="cls-10" x1="547.3807" y1="146.80302" x2="537.44931" y2="148.93087"/><line class="cls-10" x1="543.60969" y1="129.20246" x2="533.6783" y2="131.33031"/><path class="cls-12" d="M597.72706,140.3476c0.13994-11.96566,66.31719-25.39192,70.71861-15.15182,1.21387,2.82414-2.35725,7.24782-6.87192,11.46759q6.37013,31.28638,12.74019,62.57278c13.39153,8.70453,94.87757,62.40115,84.18566,91.24441-3.48778,9.40882-14.94581,11.2138-84.67611,26.53716-72.12095,15.8487-83.37209,19.08386-90.51365,11.937-12.93958-12.94916,1.78711-46.65826,12.75457-72.5156a234.64509,234.64509,0,0,1,26.00695-46.00976q-6.93895-30.83132-13.87793-61.66264C602.70234,146.5407,597.68837,143.65621,597.72706,140.3476Z" transform="translate(-123.34041 -34.0547)"/><path class="cls-13" d="M713.80168,306.00685c-8.3589,1.90432-17.23805,3.96225-36.05791,8.2232l-1.285.29087c-34.49952,7.79992-37.72237,7.74417-57.274,12.22887-0.00009,0-2.17409.49867-8.72026,1.76006-10.42273,2.00835-13.79069,2.31654-17.71413,1.73759-3.50263-.51683-5.25393-0.77527-7.04859-2.06378-6.2099-4.45852-5.14065-15.57175-4.57239-21.47825,0.74015-7.6929,3.24732-14.38288,8.23818-27.44624,1.78978-4.68467,3.36194-8.50641,4.43621-11.06092a98.14655,98.14655,0,0,1,35.64773-13.14206c36.877-5.651,61.64571,13.68116,84.63743-.39656a41.078,41.078,0,0,0,12.82549-12.7123,133.54226,133.54226,0,0,1,13.378,12.71857A90.838,90.838,0,0,1,751.772,269.75055c4.34917,7.30194,5.15983,11.26385,5.18438,14.593a20.48966,20.48966,0,0,1-.90994,6.36815C753.71671,297.38834,744.56265,298.99888,713.80168,306.00685Z" transform="translate(-123.34041 -34.0547)"/><circle class="cls-14" cx="628.36169" cy="282.29834" r="7.56972" transform="translate(-168.53777 103.8519) rotate(-12.09307)"/><circle class="cls-14" cx="722.118" cy="281.52937" r="4.69347" transform="translate(-166.29608 123.47682) rotate(-12.09307)"/><circle class="cls-15" cx="663.98605" cy="231.4617" r="7.79285" transform="translate(-157.09692 110.18708) rotate(-12.09307)"/><circle class="cls-15" cx="634.52055" cy="149.70099" r="6.05438" transform="translate(-140.6219 102.19966) rotate(-12.09307)"/><circle class="cls-15" cx="613.10595" cy="109.62583" r="3.37892" transform="translate(-132.70136 96.82397) rotate(-12.09307)"/><circle class="cls-15" cx="647.49423" cy="86.04589" r="7.30846" transform="translate(-126.99823 103.50506) rotate(-12.09307)"/><circle class="cls-14" cx="619.89895" cy="269.03305" r="0.81184" transform="translate(-165.94649 101.78458) rotate(-12.09307)"/><circle class="cls-15" cx="659.43178" cy="218.45406" r="1.7281" transform="translate(-154.47288 108.9443) rotate(-12.09307)"/></g><g class="cls-1"><circle class="cls-16" cx="450.98183" cy="99.87023" r="24.59844" transform="translate(61.76966 443.53352) rotate(-67.34536)"/><circle class="cls-3" cx="551.58466" cy="154.12996" r="17.93573" transform="translate(73.5495 569.73438) rotate(-67.34536)"/><line class="cls-17" x1="356.43648" y1="104.48904" x2="342.76127" y2="87.03426"/><line class="cls-18" x1="357.82569" y1="132.21157" x2="339.98825" y2="156.53866"/><line class="cls-18" x1="384.14157" y1="117.62418" x2="409.18778" y2="119.16763"/><circle class="cls-2" cx="452.02416" cy="200.83352" r="15.25207" transform="translate(-30.76279 506.57013) rotate(-67.34536)"/><circle class="cls-19" cx="489.84504" cy="153.45214" r="16.65259" transform="translate(36.21599 512.34165) rotate(-67.34536)"/><path class="cls-20" d="M457.60941,212.64615a10.9993,10.9993,0,0,1-14.08349-3.98837,16.62744,16.62744,0,0,0,19.574-9.46818A10.99783,10.99783,0,0,1,457.60941,212.64615Z" transform="translate(-123.34041 -34.0547)"/><path class="cls-21" d="M489.33772,143.48041a29.16568,29.16568,0,0,0-12.12191,4.29115,13.7063,13.7063,0,0,1,25.10219-2.87007A29.17069,29.17069,0,0,0,489.33772,143.48041Z" transform="translate(-123.34041 -34.0547)"/><path class="cls-22" d="M562.21236,165.103a27.17927,27.17927,0,0,0-7.60741-25.58568c0.589,0.053,8.26336.87052,11.70612,7.37595C569.34242,152.62127,567.78372,160.28487,562.21236,165.103Z" transform="translate(-123.34041 -34.0547)"/><path class="cls-23" d="M437.33288,103.98612a40.61969,40.61969,0,0,0,5.83764,14.59925,18.52961,18.52961,0,0,1-4.79814-33.74161A40.81692,40.81692,0,0,0,437.33288,103.98612Z" transform="translate(-123.34041 -34.0547)"/></g><g class="cls-1"><path class="cls-10" d="M351.72107,108.10949c0.00189,33.29745-17.41986,72.48807-35.70154,72.55472-18.26727.0666-36.0932-38.93379-36.16217-72.32439-0.06952-33.64346,17.86462-72.85175,36.16217-72.785C334.28,35.62135,351.71918,74.79956,351.72107,108.10949Z" transform="translate(-123.34041 -34.0547)"/><path class="cls-10" d="M315.78911,72.17754c33.29745-.00189,72.48807,17.41986,72.55472,35.70154,0.0666,18.26727-38.93379,36.0932-72.32439,36.16217-33.64346.06952-72.85175-17.86462-72.785-36.16217C243.301,89.61864,282.47918,72.17943,315.78911,72.17754Z" transform="translate(-123.34041 -34.0547)"/><path class="cls-24" d="M290.38138,82.70177c23.54352-23.54619,63.57451-38.9391,76.54873-26.05913,12.964,12.86982-2.0086,53.0521-25.57055,76.71158-23.74036,23.83867-64.14617,38.88177-77.03731,25.89628C251.45725,146.29134,266.829,106.25678,290.38138,82.70177Z" transform="translate(-123.34041 -34.0547)"/><path class="cls-25" d="M290.38577,133.30781c-23.54619-23.54352-38.9391-63.57451-26.05913-76.54873,12.86982-12.964,53.0521,2.0086,76.71158,25.57055C364.87689,106.07,379.92,146.47579,366.9345,159.36694,353.97534,172.23194,313.94078,156.86015,290.38577,133.30781Z" transform="translate(-123.34041 -34.0547)"/><circle class="cls-2" cx="192.4487" cy="73.72402" r="8.17983"/><circle class="cls-16" cx="141.64122" cy="125.3943" r="6.51061"/><circle class="cls-3" cx="203.88704" cy="24.42537" r="6.51061"/><circle class="cls-19" cx="255.95494" cy="88.93565" r="6.51061"/><path class="cls-26" d="M322.6322,109.36491a19.59588,19.59588,0,0,0-11.21442-7.36633,7.683,7.683,0,0,1,6.26691-.98952C320.80835,102.03863,322.95966,105.47555,322.6322,109.36491Z" transform="translate(-123.34041 -34.0547)"/><path class="cls-27" d="M262.52869,160.856a7.91866,7.91866,0,0,0,4.98419,3.45059c-3.18335,1.20259-6.51416-.2915-7.51459-2.83716a5.57465,5.57465,0,0,1,1.45691-5.82767A7.81569,7.81569,0,0,0,262.52869,160.856Z" transform="translate(-123.34041 -34.0547)"/><path class="cls-22" d="M324.2702,55.6208a11.27478,11.27478,0,0,0-3.22467,5.17224,6.67477,6.67477,0,0,1,9.29089-7.98185A11.31513,11.31513,0,0,0,324.2702,55.6208Z" transform="translate(-123.34041 -34.0547)"/><path class="cls-21" d="M385.38556,124.32432a6.48338,6.48338,0,0,1-4.74976,5.00516,17.40215,17.40215,0,0,0,2.45148-11.28714A6.4802,6.4802,0,0,1,385.38556,124.32432Z" transform="translate(-123.34041 -34.0547)"/></g><g class="cls-1"><path class="cls-10" d="M343.56767,258.6504c-6.54238,10.71106-12.05626,20.072-16.46486,27.69955-4.39127,7.59756-5.61388,9.8904-6.0051,13.28486-0.968,8.39916,4.446,12.333,1.55158,19.66539-0.55452,1.40473-2.51389,3.57815-2.14908,6.42334a3.742,3.742,0,0,0,1.43476,2.78584,3.8026,3.8026,0,0,0,3.25168-.00018c2.68406-1.0425,3.22016-4.00513,4.6058-5.68948,4.92041-5.981,11.49024-2.46462,18.69254-7.4869,2.77433-1.93461,4.15368-4.098,8.59062-11.45735,4.86383-8.06742,10.33113-17.28531,16.255-27.5337" transform="translate(-123.34041 -34.0547)"/><path class="cls-16" d="M342.93518,257.4006q18.04014-29.97254,36.08032-59.9451c0.30081-.89584,3.93224-11.10267,14.4111-12.51043a18.73018,18.73018,0,0,1,12.40017,2.41732,18.53223,18.53223,0,0,1,7.51184,9.12718c3.96112,9.83923-3.06276,18.17246-3.75675,18.96682q-17.714,30.1743-35.42805,60.34856" transform="translate(-123.34041 -34.0547)"/><line class="cls-5" x1="211.69714" y1="218.49648" x2="258.0992" y2="246.07828"/><path class="cls-28" d="M331.85932,299.14652c2.78322,3.05066,5.82385,2.93682,9.68979,6.345a21.35123,21.35123,0,0,1,5.83913,8.82926,14.86345,14.86345,0,0,1-2.97422,1.56451,23.33831,23.33831,0,0,1-4.41708,1.071c-3.35888.62775-3.017,0.43534-4.2862,0.75661a13.46574,13.46574,0,0,0-4.94238,2.09423,11.56844,11.56844,0,0,0-1.72987,1.63986,12.437,12.437,0,0,0-1.16939,1.67089c-0.96645,1.57424-.95929,2.05572-1.77642,2.9462a4.19522,4.19522,0,0,1-1.165.94359,2.38537,2.38537,0,0,1-2.14366.26117,2.2968,2.2968,0,0,1-.8683-1.7998,3.7987,3.7987,0,0,1,.18975-1.6743,39.05846,39.05846,0,0,1,2.15676-4.72875c0.73671-1.58456.64262-2.95341,0.46962-5.47009-0.25878-3.76471-1.4595-4.64387-2.09009-9.588a16.58863,16.58863,0,0,1-.20237-3.291,15.20134,15.20134,0,0,1,2.31419-7.15921q1.86284-3.27531,3.72567-6.55054C328.17854,293.72627,330.09445,297.21206,331.85932,299.14652Z" transform="translate(-123.34041 -34.0547)"/><path class="cls-28" d="M304.3735,334.04871c-2.35039.4135-5.61357-.91459-6.06331-3.15607-0.44284-2.207,1.9749-4.6367,4.24545-5.22269,1.81545-.46855,2.40089.53471,6.86755,1.25933,2.98033,0.48347,4.60913.34334,4.6977,0.85577,0.09072,0.52481-1.57857.89847-4.08163,2.40046C306.43807,332.34642,306.34558,333.70178,304.3735,334.04871Z" transform="translate(-123.34041 -34.0547)"/><path class="cls-27" d="M398.68873,195.1458h0a5.81176,5.81176,0,0,1,5.81176,5.81176v26.9132a5.81176,5.81176,0,0,1-5.81176,5.81176h0a5.81175,5.81175,0,0,1-5.81175-5.81175v-26.9132a5.81175,5.81175,0,0,1,5.81175-5.81175Z" transform="translate(42.1896 -207.66521) rotate(30.72763)"/></g><g class="cls-1"><rect class="cls-16" x="124.20019" y="272.77101" width="89.80213" height="11.64305" rx="5.82152" ry="5.82152" transform="translate(-70.35103 -59.97336) rotate(10.38495)"/><path class="cls-29" d="M151.74869,239.59951H195.5422a14.10495,14.10495,0,0,1,14.10495,14.10495v2.39272A14.10487,14.10487,0,0,1,195.54228,270.202H151.74869a14.10487,14.10487,0,0,1-14.10487-14.10487v-2.3928a14.10487,14.10487,0,0,1,14.10487-14.10487Z" transform="translate(-74.54728 -61.1806) rotate(10.38495)"/><rect class="cls-30" x="167.02109" y="143.58106" width="36.03801" height="94.80769" rx="12" ry="12" transform="matrix(0.98362, 0.18026, -0.18026, 0.98362, -85.88215, -64.28162)"/><path class="cls-2" d="M205.7644,78.33569c-1.61,2.868-4.13792,7.14739-7.58942,12.11055-7.38241,10.61563-9.21275,10.31156-11.86812,15.7781-4.55545,9.3783-4.20793,20.763.38236,28.66973,1.23833,2.133,3.342,5.64073,7.1536,6.5299,4.449,1.03788,8.495-2.12856,10.73108-3.87856,1.03135-.80714,8.44058-6.79662,9.35352-16.86522,0.61252-6.75568-2.22155-9.53222-4.99053-18.66383A76.53072,76.53072,0,0,1,205.7644,78.33569Z" transform="translate(-123.34041 -34.0547)"/><rect class="cls-16" x="196.96896" y="258.26061" width="11.48879" height="2.95923" rx="1.47962" ry="1.47962" transform="translate(371.3996 73.11384) rotate(100.38495)"/><rect class="cls-16" x="205.86887" y="261.34926" width="10.60211" height="1.9148" rx="0.9574" ry="0.9574" transform="matrix(0.98362, 0.18026, -0.18026, 0.98362, -72.5976, -67.82347)"/><path class="cls-4" d="M207.23623,109.74113c1.80582,4.095,4.26329,7.586,2.75758,10.301a4.8388,4.8388,0,0,1-4.2679,2.34842c-2.52034-.124-4.14483-2.68791-4.93427-3.93385-4.71548-7.44233,2.06635-22.63245,3.18014-25.06773A40.29614,40.29614,0,0,0,207.23623,109.74113Z" transform="translate(-123.34041 -34.0547)"/><rect class="cls-31" x="167.92726" y="169.92742" width="13.296" height="55.31791" rx="6.64799" ry="6.64799" transform="translate(-84.86358 -62.28709) rotate(10.38495)"/></g><g class="cls-1"><path class="cls-12" d="M143.00746,370.34835l42.98523,137.956c3.18007,4.96844,11.22991,15.91428,25.42192,20.58891,4.2444,1.398,10.53618,3.38,18.04071,1.41828,9.12535-2.38538,14.22224-9.08,16.6087-12.21457,9.361-12.29538,8.41224-26.58607,7.94418-30.98534L211.46472,348.314c5.79674-6.31039,6.30582-9.13166,5.52154-10.51984-1.61471-2.85806-9.66722-1.33254-44.29049,9.22464-32.5951,9.93876-40.36563,13.13221-40.18721,16.7455C132.59668,365.54891,134.64537,367.87364,143.00746,370.34835Z" transform="translate(-123.34041 -34.0547)"/><path class="cls-32" d="M249.67147,506.50583a41.80511,41.80511,0,0,1-12.69561,17.87122A30.60057,30.60057,0,0,1,223.8656,528.636c-20.55092,1.66629-34.55781-19.55894-35.35991-20.81394l-21.74727-69.237c1.96385-3.55884,5.38984-8.385,11.08478-10.75949,11.505-4.79689,21.16419,5.04289,35.20725,1.90171,4.477-1.00143,10.73625-3.6212,17.39575-11.16042L251.8867,487.3776A41.65071,41.65071,0,0,1,249.67147,506.50583Z" transform="translate(-123.34041 -34.0547)"/><circle class="cls-33" cx="191.5445" cy="454.53615" r="7.62077" transform="matrix(0.95473, -0.29748, 0.29748, 0.95473, -249.88436, 43.50381)"/><circle class="cls-33" cx="231.79739" cy="487.9451" r="7.82673" transform="matrix(0.95473, -0.29748, 0.29748, 0.95473, -258.00054, 56.99075)"/><circle class="cls-33" cx="224.61438" cy="501.63039" r="3.10219" transform="translate(-262.39683 55.4735) rotate(-17.30633)"/><circle class="cls-34" cx="199.47239" cy="387.20209" r="7.48346" transform="translate(-229.49489 42.81385) rotate(-17.30633)"/><circle class="cls-34" cx="158.33973" cy="367.58656" r="3.98202" transform="translate(-225.52182 29.68966) rotate(-17.30633)"/><circle class="cls-34" cx="161.72593" cy="358.83697" r="1.8537" transform="translate(-222.76569 30.30087) rotate(-17.30633)"/><circle class="cls-34" cx="179.45202" cy="314.40985" r="6.72824" transform="translate(-208.74699 33.56273) rotate(-17.30633)"/><circle class="cls-34" cx="137.24672" cy="313.96924" r="4.18799" transform="translate(-210.52664 20.98754) rotate(-17.30633)"/></g></svg>