<svg id="Layer_1" data-name="Layer 1" xmlns="http://www.w3.org/2000/svg" xmlns:xlink="http://www.w3.org/1999/xlink" viewBox="0 0 197.80254 196.92432"><defs><style>.cls-1{fill:#f1a21f;stroke:#f1a221;}.cls-1,.cls-11,.cls-6,.cls-7,.cls-8{stroke-miterlimit:10;}.cls-2{fill:url(#linear-gradient);}.cls-3{font-size:13.72589px;}.cls-3,.cls-4,.cls-5,.cls-6{fill:#fff;}.cls-3,.cls-4,.cls-5{font-family:Ubuntu;}.cls-4{font-size:14.12484px;}.cls-5{font-size:13.81129px;}.cls-6{stroke:#fff;}.cls-7{fill:none;}.cls-7,.cls-8{stroke:#010101;stroke-width:2px;}.cls-8,.cls-9{fill:#010101;}.cls-9{font-size:15.34381px;font-family:Marker Felt;}.cls-10{letter-spacing:0.65922px;}.cls-11,.cls-12{fill:#d1d2cf;}.cls-11{stroke:#d1d2cf;}</style><linearGradient id="linear-gradient" x1="135.85977" y1="193.04289" x2="305.84066" y2="193.04289" gradientUnits="userSpaceOnUse"><stop offset="0" stop-color="#fff"/><stop offset="1" stop-color="#8b5e3c"/></linearGradient></defs><title>calcium</title><rect class="cls-1" x="0.5" y="0.82113" width="196.80254" height="193.4963"/><rect class="cls-2" x="135.85976" y="109.58382" width="169.9809" height="166.91817" transform="translate(291.60145 -122.44451) rotate(90)"/><text class="cls-3" transform="translate(12.78158 194.23389) scale(1.34902 1)">Ca</text><text class="cls-4" transform="translate(163.59554 11.95654) scale(1.30866 1)">20</text><text class="cls-5" transform="translate(138.54232 193.82715) scale(1.31547 1)">40.08</text><path class="cls-6" d="M160.5994,217.44928l-0.41647,27.48752c4.64484,9.04163,13.96913,14.46326,23.531,13.74377,11.6041-.87314,17.841-10.36063,18.53326-11.45314q-0.62471-15.09732-1.24944-30.19464a28.61169,28.61169,0,0,0-9.579-4.78949,32.05766,32.05766,0,0,0-9.37074-1.0412,37.754,37.754,0,0,0-12.07787,1.66591A35.71912,35.71912,0,0,0,160.5994,217.44928Z" transform="translate(-122.29167 -94.63721)"/><path class="cls-6" d="M209.952,179.96628q0.54854,21.56023,1.24944,43.31369,0.29945,9.28514.62471,18.53325a18.89656,18.89656,0,0,0,10.2037,11.86961l45.60432,0.20825a17.38248,17.38248,0,0,0,9.37073-7.08012,17.71832,17.71832,0,0,0,2.0824-13.74377q-1.14532-26.65457-2.29062-53.30914a65.905,65.905,0,0,0-10.2037-3.33183c-6.37616-1.52025-12.87534-1.58949-25.61339-1.66591-0.00011,0-6.52087-.03912-14.99319.62473a38.85741,38.85741,0,0,0-8.746,1.45767A34.95428,34.95428,0,0,0,209.952,179.96628Z" transform="translate(-122.29167 -94.63721)"/><path class="cls-7" d="M161.02023,192.95616l-1.77534,49.23558a10.60842,10.60842,0,0,0,.13716,2.86729c1.50838,8.01676,12.62522,13.80084,22.206,13.79215,8.59939-.0078,18.83646-4.685,21.00046-12.21515A11.274,11.274,0,0,0,203,242.90856c-0.39719-8.42251-.88908-26.28086-1.51484-50.41974A53.50434,53.50434,0,0,1,161.02023,192.95616Z" transform="translate(-122.29167 -94.63721)"/><path class="cls-7" d="M160.66495,192.45168a42.0038,42.0038,0,0,1,7.73286-3.46792,42.61666,42.61666,0,0,1,13.41378-2.103,43.97612,43.97612,0,0,1,20.1273,5.14677" transform="translate(-122.29167 -94.63721)"/><path class="cls-7" d="M160.47106,217.71911c0.02422,2.884,10.582,5.66642,19.561,5.67268,10.24585,0.00715,21.69689-3.59826,21.5962-6.61814-0.10071-3.02054-11.76187-5.56331-21.48313-5.2C171.27019,211.9054,160.44648,214.79251,160.47106,217.71911Z" transform="translate(-122.29167 -94.63721)"/><path class="cls-7" d="M224.47045,141.6163c0.21825,0.30147.78069,1.15764,0.97775,4.0878a27.09925,27.09925,0,0,1-.48887,7.15364,29.87812,29.87812,0,0,0-9.45153,7.15364,31.65625,31.65625,0,0,0-6.595,11.97341q1.17907,32.25118,2.35813,64.50237a17.28653,17.28653,0,0,0,2.14331,10.34909c3.20058,5.41189,9.5044,8.38806,16.25814,7.82225,9.444,0.52238,17.43476.46829,23.484,0.26973,15.84484-.52007,19.57306-2.07081,22.19365-4.85519,4.20665-4.46958,4.35837-10.94677,4.38713-14.83531,0.19752-26.70182-1.844-60.0237-2.32215-67.61261a27.74256,27.74256,0,0,0-6.17574-9.65764,26.20371,26.20371,0,0,0-11.57-6.813,28.66868,28.66868,0,0,1-2.44437-6.813c-0.8074-3.67161-.25531-4.698.06051-5.12866,0.53683-.732,1.12931-0.74971,1.895-1.85464a4.52254,4.52254,0,0,0,.97775-2.55488c-0.06689-1.99425-2.56366-3.34972-4.23689-4.25812a17.116,17.116,0,0,0-4.72576-1.70325,34.25073,34.25073,0,0,0-8.61982-.68817c-11.18893.362-15.45941,2.11989-16.77427,2.69733-2.26749.9958-4.00116,2.10685-4.64518,4.046a5.40209,5.40209,0,0,0,.25807,4.046C222.24352,140.38781,223.41675,140.16082,224.47045,141.6163Z" transform="translate(-122.29167 -94.63721)"/><path class="cls-7" d="M209.47837,179.93936c-0.03494,2.99263,18.66244,6.47283,35.85062,6.13169,15.06974-.2991,32.32289-3.602,32.26556-6.47233-0.05989-2.99894-19.01349-5.40077-34.384-5.28006C228.45958,174.43449,209.51349,176.93248,209.47837,179.93936Z" transform="translate(-122.29167 -94.63721)"/><path class="cls-8" d="M230.174,141.78664a18.396,18.396,0,0,0,7.98491,3.23617c8.15072,1.17138,14.44-3.82158,14.34024-4.0878-0.088-.23494-5.21671,3.0377-12.71067,2.89551A26.68525,26.68525,0,0,1,230.174,141.78664Z" transform="translate(-122.29167 -94.63721)"/><path class="cls-8" d="M228.21847,133.95171a2.91857,2.91857,0,0,0-.97774,2.38454c0.68311,2.96853,10.48178,2.62213,12.38476,2.55486,3.386-.11969,9.15835-0.32376,9.77744-2.72518,0.26142-1.014-.47367-2.11879-1.1407-2.89553A18.68264,18.68264,0,0,1,228.21847,133.95171Z" transform="translate(-122.29167 -94.63721)"/><text class="cls-9" transform="translate(95.92605 124.80104) scale(1.51695 1)"><tspan class="cls-10">M</tspan><tspan class="cls-10" x="15.12851" y="0">I</tspan><tspan x="19.68542" y="0">LK</tspan></text><path class="cls-11" d="M197.70595,225.92471c1.39912,0.05281,2.75679,9.00095.82529,17.3309a12.56678,12.56678,0,0,1-2.31079,5.44687c-3.64835,4.5589-10.88687,5.61981-11.88406,3.96135-0.90677-1.50807,4.07332-4.057,8.25282-11.719C197.16911,232.54875,196.49686,225.87907,197.70595,225.92471Z" transform="translate(-122.29167 -94.63721)"/><path class="cls-11" d="M171.95717,215.3611c-1.25531-.57773-2.50307-0.20464-4.29147.33012-1.427.42671-3.45483,1.03305-3.46617,1.81561-0.02371,1.6371,8.77515,4.18292,10.06844,2.14574C174.93294,218.6051,173.72295,216.17377,171.95717,215.3611Z" transform="translate(-122.29167 -94.63721)"/><path class="cls-12" d="M274.78723,185.816a177.6544,177.6544,0,0,1,1.4855,21.12721c0.08084,7.45683-.30429,14.85225-0.66022,14.85506-0.24637.00194-.187-3.54027-0.99033-8.913-1.10748-7.4073-1.67386-11.19562-4.12643-14.52495-4.41068-5.98741-12.07336-6.62387-11.719-8.08775,0.22989-.94966,3.40137-0.46146,8.41788-1.65056A33.65167,33.65167,0,0,0,274.78723,185.816Z" transform="translate(-122.29167 -94.63721)"/></svg>