<svg id="Layer_1" data-name="Layer 1" xmlns="http://www.w3.org/2000/svg" viewBox="0 0 197.80254 194.4963"><defs><style>.cls-1{fill:#f4eb14;stroke:#f4eb14;}.cls-1,.cls-2,.cls-3,.cls-4{stroke-miterlimit:10;}.cls-2{fill:#e8e119;stroke:#e8e119;}.cls-3,.cls-4{fill:none;stroke-width:2px;}.cls-3{stroke:#7e7e7f;}.cls-4{stroke:#7f7e7e;}.cls-5{fill:#919091;}.cls-6{font-size:24.15845px;fill:#7e7e7f;font-family:Ubuntu;}</style></defs><title>calcium</title><rect class="cls-1" x="0.5" y="0.5" width="196.80254" height="193.4963"/><rect class="cls-2" x="13.5681" y="14.62548" width="169.98088" height="166.91816"/><ellipse class="cls-3" cx="99.45603" cy="96.14947" rx="44.96911" ry="43.65551"/><ellipse class="cls-4" cx="99.52158" cy="96.25135" rx="29.71218" ry="28.29386"/><ellipse class="cls-4" cx="98.75014" cy="96.55997" rx="18.37033" ry="18.36616"/><ellipse class="cls-4" cx="98.79592" cy="96.29008" rx="9.77236" ry="9.77873"/><ellipse class="cls-5" cx="98.96663" cy="96.35066" rx="5.45316" ry="5.38308"/><ellipse class="cls-5" cx="98.4655" cy="68.50936" rx="3.59796" ry="3.49086"/><ellipse class="cls-5" cx="108.78518" cy="111.66102" rx="3.59796" ry="3.49086"/><ellipse class="cls-5" cx="116.20489" cy="102.23469" rx="3.59796" ry="3.49086"/><ellipse class="cls-5" cx="115.82385" cy="90.75" rx="3.59796" ry="3.49086"/><ellipse class="cls-5" cx="95.32289" cy="114.26606" rx="3.59796" ry="3.49086"/><ellipse class="cls-5" cx="85.49322" cy="109.2692" rx="3.59796" ry="3.49086"/><ellipse class="cls-5" cx="80.51759" cy="96.57276" rx="3.59796" ry="3.49086"/><ellipse class="cls-5" cx="83.57634" cy="85.81628" rx="3.59796" ry="3.49086"/><ellipse class="cls-5" cx="108.02764" cy="80.85113" rx="3.59796" ry="3.49086"/><ellipse class="cls-5" cx="117.38048" cy="73.65551" rx="3.59796" ry="3.49086"/><ellipse class="cls-5" cx="127.95176" cy="93.20121" rx="3.59796" ry="3.49086"/><ellipse class="cls-5" cx="123.94084" cy="112.33025" rx="3.59796" ry="3.49086"/><ellipse class="cls-5" cx="78.27799" cy="117.26677" rx="3.59796" ry="3.49086"/><ellipse class="cls-5" cx="78.58652" cy="76.23191" rx="3.59796" ry="3.49086"/><ellipse class="cls-5" cx="70.25614" cy="100.606" rx="3.59796" ry="3.49086"/><ellipse class="cls-5" cx="94.58662" cy="78.72911" rx="3.59796" ry="3.49086"/><ellipse class="cls-5" cx="92.90404" cy="104.09537" rx="3.59796" ry="3.49086"/><ellipse class="cls-5" cx="99.80666" cy="86.57453" rx="3.59796" ry="3.49086"/><ellipse class="cls-5" cx="100.10251" cy="52.91221" rx="3.59796" ry="3.49086"/><ellipse class="cls-5" cx="99.50426" cy="139.6121" rx="3.59796" ry="3.49086"/><ellipse class="cls-5" cx="99.6054" cy="123.808" rx="3.59796" ry="3.49086"/><text class="cls-6" transform="translate(20.58822 174.28727) scale(1.01704 1)">Ca</text><text class="cls-6" transform="translate(155.73081 38.66931) scale(1.01704 1)">20</text><text class="cls-6" transform="translate(122.52593 175.47813) scale(1.01704 1)">40.08</text></svg>