<svg id="Layer_1" data-name="Layer 1" xmlns="http://www.w3.org/2000/svg" xmlns:xlink="http://www.w3.org/1999/xlink" viewBox="0 0 197.80254 197.06543"><defs><style>.cls-1{fill:#f4eb14;stroke:#f4eb14;}.cls-1,.cls-10,.cls-11,.cls-12,.cls-13,.cls-14,.cls-15,.cls-6,.cls-7,.cls-8,.cls-9{stroke-miterlimit:10;}.cls-2{fill:url(#linear-gradient);}.cls-3{font-size:14.74102px;}.cls-11,.cls-3,.cls-4,.cls-5{fill:#fff;}.cls-3,.cls-4,.cls-5{font-family:Ubuntu;}.cls-4{font-size:16.48499px;}.cls-5{font-size:12.99706px;}.cls-6{fill:#cfcecc;stroke:#cfcecc;}.cls-7{fill:#e1aa58;stroke:#e1aa58;}.cls-8{fill:#c17f2a;stroke:#c17f2a;}.cls-9{fill:#e8e11b;stroke:#e8e11b;}.cls-10{fill:#b7af33;stroke:#b7af33;}.cls-11{stroke:#fff;}.cls-12{fill:#696561;stroke:#696561;}.cls-13{fill:#312f2d;stroke:#312f2d;}.cls-14{fill:#ed1c24;stroke:#ed1c24;}.cls-15{fill:#9b1c1f;stroke:#9b1c1f;}</style><linearGradient id="linear-gradient" x1="137.17558" y1="193.0429" x2="304.52483" y2="193.0429" gradientTransform="translate(413.33169 -28.29678) rotate(89.85451)" gradientUnits="userSpaceOnUse"><stop offset="0" stop-color="#fff"/><stop offset="1" stop-color="#48484a"/></linearGradient></defs><title>carbon</title><rect class="cls-1" x="0.5" y="1.36263" width="196.80254" height="193.4963" rx="10.71008" ry="10.71008"/><rect class="cls-2" x="135.85977" y="109.58382" width="169.98088" height="166.91816" transform="translate(319.40875 291.9901) rotate(180)"/><text class="cls-3" transform="translate(11.22493 194.17627) scale(1.34275 1)">C</text><text class="cls-4" transform="translate(172.61458 13.95459) scale(1.17758 1)">6</text><text class="cls-5" transform="translate(131.07015 193.52832) scale(1.32469 1)">12.011</text><path class="cls-6" d="M266.64088,175.85967l-10.98822-11.29913,5.65108-5.53347,11.06671,11.14434Z" transform="translate(-122.29167 -94.0957)"/><path class="cls-7" d="M172.94241,245.77532L168.051,240.816l10.66708-22.88918,11.24741,11.1176Z" transform="translate(-122.29167 -94.0957)"/><path class="cls-8" d="M173.0934,245.9389l4.97905,4.84786,23.08179-10.46717-11.05089-11.1409Z" transform="translate(-122.29167 -94.0957)"/><polygon class="cls-9" points="133.14 70.467 67.89 134.806 56.519 123.594 121.769 59.255 133.14 70.467"/><polygon class="cls-10" points="144.398 81.666 79.03 146.12 67.832 135.079 133.2 70.624 144.398 81.666"/><polygon class="cls-11" points="133.22 70.305 121.868 59.113 127.482 53.577 138.834 64.77 133.22 70.305"/><path class="cls-12" d="M167.95573,241.00359l4.80495,4.92781-8.5851,8.26552a3.38593,3.38593,0,0,1-.8737-1.25674,3.54652,3.54652,0,0,1-.08121-2.20192A53.697,53.697,0,0,1,167.95573,241.00359Z" transform="translate(-122.29167 -94.0957)"/><path class="cls-13" d="M177.82217,250.90991l-4.89982-4.80281-8.56623,8.2615a3.717,3.717,0,0,0,1.30347.8304,4.02482,4.02482,0,0,0,2.23144.1168C169.452,254.99676,173.14279,253.4249,177.82217,250.90991Z" transform="translate(-122.29167 -94.0957)"/><path class="cls-14" d="M249.82428,147.61045l11.347,11.18005,17.00512-16.53558L269.23256,133.61a4.00555,4.00555,0,0,0-2.53017-.92832,4.82717,4.82717,0,0,0-3.23626,1.91465C261.487,136.83931,256.68794,141.341,249.82428,147.61045Z" transform="translate(-122.29167 -94.0957)"/><path class="cls-15" d="M272.47486,170.06687L261.35111,158.969l16.97718-16.57252,8.92287,9.04318a3.885,3.885,0,0,1,.88924,2.51341,4.74573,4.74573,0,0,1-2.00789,3.151C283.801,159.024,279.041,163.62131,272.47486,170.06687Z" transform="translate(-122.29167 -94.0957)"/></svg>