<svg id="Layer_1" data-name="Layer 1" xmlns="http://www.w3.org/2000/svg" xmlns:xlink="http://www.w3.org/1999/xlink" viewBox="0 0 197.80254 194.60173"><defs><style>.cls-1{fill:#9a60a5;stroke:#9a60a5;}.cls-1,.cls-10,.cls-2,.cls-9{stroke-miterlimit:10;}.cls-10,.cls-2{stroke:#804c88;}.cls-2{opacity:0.81;fill:url(#linear-gradient);}.cls-3{font-size:12.58846px;}.cls-3,.cls-4,.cls-5,.cls-6,.cls-7,.cls-8{fill:#fff;}.cls-3,.cls-4,.cls-5{font-family:Ubuntu;}.cls-4{font-size:14.51678px;}.cls-5{font-size:12.10637px;}.cls-6{opacity:0.69;}.cls-7{opacity:0.75;}.cls-8{opacity:0.72;}.cls-10,.cls-9{fill:none;}.cls-9{stroke:#4c4c4d;}.cls-11{fill:#8b3a96;}.cls-12{fill:#5ebd71;}.cls-13{fill:#7ec34c;}.cls-14{fill:#3a6db5;}.cls-15{fill:#f47920;}.cls-16{fill:#e33026;}.cls-17{fill:#e2cf25;}.cls-18{fill:#b24f9e;}.cls-19{fill:#9051a0;}.cls-20{fill:#fba919;}.cls-21{fill:#d093c1;}.cls-22{fill:#488ecc;}.cls-23{fill:#e8e4a5;}.cls-24{fill:#e95150;}</style><linearGradient id="linear-gradient" x1="135.85977" y1="193.0429" x2="305.84065" y2="193.0429" gradientUnits="userSpaceOnUse"><stop offset="0" stop-color="#fff"/><stop offset="1" stop-color="#00add4"/></linearGradient></defs><title>helium</title><rect class="cls-1" x="0.5" y="0.5" width="196.80254" height="193.4963" rx="10.83503" ry="10.83503"/><rect class="cls-2" x="135.85977" y="109.58382" width="169.98088" height="166.91816" transform="translate(-94.48436 318.93477) rotate(-90)"/><text class="cls-3" transform="translate(12.04454 192.1345) scale(1.21127 1)">He</text><text class="cls-4" transform="translate(175.76168 12.91744) scale(1.01731 1)">2</text><text class="cls-5" transform="translate(149.16721 191.91244) scale(1.16673 1)">4.003</text><path class="cls-6" d="M137.97032,134.10457c1.83391-.37567,21.87616-4.13507,36.10733,9.91359A38.47925,38.47925,0,0,1,184.83774,165.897c0.12463-.76837,1.48509-8.5231,6.81471-10.40141,6.18657-2.18033,14.03021,4.85823,15.78145,11.47742,2.64366,9.99232-7.71306,22.36882-19.36813,25.82419-10.87566,3.22429-23.32822-1.18692-31.56291-11.11874a13.62169,13.62169,0,0,1-18.6508,17.21613Q137.91119,166.49957,137.97032,134.10457Z" transform="translate(-122.29167 -94.95833)"/><path class="cls-7" d="M277.74536,216.35123c-3.3331-10.82675-13.68427-17.36987-23.53636-15.82275-7.68291,1.20648-14.17038,7.19279-16.61391,15.2294-0.42172-.54012-7.21152-8.97881-16.21832-7.91138-9.01938,1.06892-17.03375,11.28792-15.625,23.93193-6.30942-2.78833-12.3644-4.277-15.42719-1.58228-6.20294,5.45753-2.1004,29.80516,12.856,34.21672,7.86128,2.31879,17.18967-1.3219,23.93192-8.70253,1.35086,1.53059,6.62115,7.13567,14.83385,7.71361,9.22926,0.64948,18.41136-5.31458,22.74519-15.03163,2.70535,0.717,12.07916,2.8437,21.36075-2.17563,2.11932-1.1461,11.71289-6.33414,11.66928-14.04269C297.68182,225.14218,289.63193,217.63455,277.74536,216.35123Z" transform="translate(-122.29167 -94.95833)"/><path class="cls-8" d="M303.54163,116.805a56.40063,56.40063,0,0,0-63.35345,5.72687c-9.93628-6.65216-22.16974-3.02532-25.94987,4.65308-2.786,5.659-1.02594,13.61137,4.65309,19.14922,0.61813,3.86571,2.53629,11.86638,8.94823,15.92784,9.8739,6.25435,27.8123,1.52565,39.9091-15.033a50.52692,50.52692,0,0,0,22.773,8.40421,49.22081,49.22081,0,0,0,13.01993-.3508V116.805Z" transform="translate(-122.29167 -94.95833)"/><path class="cls-9" d="M192.13042,225.96336c-1.65138,4.97073-2.66068,10.7809.26352,14.2301,3.1478,3.71294,7.97922,1.29962,11.85841,5.27042,4.6651,4.77527.41695,11.06941,5.27042,15.54771,3.4127,3.14893,7.59576,1.95868,9.48672,5.53391a8.23705,8.23705,0,0,1,.26352,6.061" transform="translate(-122.29167 -94.95833)"/><path class="cls-9" d="M228.49623,231.4973a11.15262,11.15262,0,0,0,0,7.90561c1.51027,3.41667,4.50581,3.8929,4.47984,6.061-0.03886,3.24469-6.77141,4.12674-7.11505,7.90561-0.18556,2.0405,1.6698,2.96739,2.89873,5.2704,1.3985,2.62076,2.06958,7.1806-2.10817,15.54773" transform="translate(-122.29167 -94.95833)"/><path class="cls-10" d="M259.59164,223.32817c0.45172,3.84387.31137,8.585-2.63519,11.59489-3.24409,3.3138-7.17035,1.75113-9.48676,5.00688-2.873,4.038,1.61913,8.61708-1.3176,13.43954-1.8262,2.99886-4.31642,2.46484-7.64209,5.2704-2.53876,2.14172-5.4957,6.17163-6.32449,14.49362" transform="translate(-122.29167 -94.95833)"/><path class="cls-10" d="M183.96127,187.22586c1.92247,26.97235,8.785,35.83014,15.28419,38.474,4.05186,1.64827,9.60065,1.5477,11.85841,5.79745,2.65163,4.99112-2.55124,9.7428.26352,15.28418,2.51994,4.961,8.00774,3.7468,9.22322,8.16914,1.202,4.3732-3.60451,7.59808-2.10817,13.176a10.26737,10.26737,0,0,0,2.37169,4.21631" transform="translate(-122.29167 -94.95833)"/><path class="cls-10" d="M227.70567,204.35469c-10.59453,23.78119-9.34334,33.211-5.53394,37.15639,1.62338,1.68134,5.69075,4.41672,5.79745,8.69617,0.07381,2.96016-1.80267,4.44409-2.89873,7.11505-1.35561,3.30347-1.57376,8.56012,3.42577,17.12885" transform="translate(-122.29167 -94.95833)"/><line class="cls-10" x1="92.5015" y1="63.01676" x2="103.30584" y2="175.80351"/><path class="cls-10" d="M264.335,165.09015c2.2236,29.0789-3.32639,39.67293-9.22322,43.74438-2.034,1.40437-6.61542,3.76306-9.75026,9.22322-3.11632,5.4279-1.1156,7.49794-3.9528,14.2301-3.561,8.44966-8.0294,8.31277-9.22322,15.02066-0.90454,5.08247,1.42183,6.50334.79056,12.38545a24.66736,24.66736,0,0,1-5.2704,12.38547" transform="translate(-122.29167 -94.95833)"/><path class="cls-11" d="M171.567,185.98246c0.78342-4.98508-11.72021-7.6394-18.29213-17.21613-0.563-.82045-6.00217-9.00453-3.94536-18.6508,1.98528-9.31078,10.68748-18.73311,22.23749-19.00948,9.602-.22977,17.49962,5.94942,21.1615,12.91209a25.95642,25.95642,0,0,1-1.79335,26.18286c-5.44095,7.59193-15.64487,10.74811-14.70544,15.42279,0.37427,1.86241,2.26709,2.721,1.79335,3.94536-0.81026,2.09407-7.39458,2.28946-8.24939.35867C169.2606,188.769,171.26905,187.87815,171.567,185.98246Z" transform="translate(-122.29167 -94.95833)"/><path class="cls-12" d="M226.08475,228.66411c0.78342-4.98508-11.72021-7.6394-18.29213-17.21613-0.563-.82045-6.00217-9.00453-3.94536-18.6508,1.98528-9.31078,10.68748-18.73311,22.23749-19.00948,9.602-.22977,17.49962,5.94942,21.1615,12.91209a25.95642,25.95642,0,0,1-1.79335,26.18286c-5.44095,7.59193-15.64487,10.74811-14.70544,15.42279,0.37427,1.86241,2.26709,2.721,1.79335,3.94536-0.81026,2.09407-7.39458,2.28946-8.24939.35867C223.77838,231.45068,225.78684,230.5598,226.08475,228.66411Z" transform="translate(-122.29167 -94.95833)"/><path class="cls-13" d="M247.60487,207.50262c0.40892,0.825-2.18317,2.35106-9.68408,8.96674-7.47888,6.59624-9.00838,8.70087-9.68407,8.24939-1.1853-.792,1.0834-8.89731,7.17339-13.62942C240.38156,207.22635,247.01,206.30246,247.60487,207.50262Z" transform="translate(-122.29167 -94.95833)"/><path class="cls-14" d="M267.69043,180.60242c0.78342-4.98508-11.72021-7.6394-18.29213-17.21613-0.563-.82045-6.00217-9.00453-3.94536-18.6508,1.98528-9.31078,10.68748-18.73311,22.23749-19.00948,9.602-.22977,17.49962,5.94942,21.1615,12.91209a25.95642,25.95642,0,0,1-1.79335,26.18286c-5.44095,7.59193-15.64487,10.74811-14.70544,15.42279,0.37427,1.86241,2.26709,2.721,1.79335,3.94536-0.81026,2.09407-7.39458,2.28946-8.24939.35867C265.38407,183.389,267.39252,182.49811,267.69043,180.60242Z" transform="translate(-122.29167 -94.95833)"/><path class="cls-15" d="M219.19687,171.41525c0.87992-5.1931-13.16388-7.9582-20.54531-17.93455-0.63237-.85469-6.7415-9.38029-4.43134-19.4291,2.22982-9.69931,12.00394-19.51484,24.97664-19.80274A27.11619,27.11619,0,0,1,242.965,127.69977c5.138,9.061,3.36917,20.30852-2.01425,27.27547-6.11115,7.90875-17.572,11.19663-16.51682,16.06638,0.42037,1.94013,2.54634,2.83454,2.01425,4.11-0.91006,2.18146-8.30542,2.385-9.26553.37364C216.60641,174.31811,218.86226,173.39,219.19687,171.41525Z" transform="translate(-122.29167 -94.95833)"/><path class="cls-16" d="M212.09661,186.6998c-5.38861-6.43436-4.804-14.91547-4.6627-16.49879,0.74361-8.33536,6.568-20.20523,18.6508-21.87881,11.12366-1.54074,21.04509,6.46155,23.67218,15.42278,2.15993,7.36771-.588,15.46165-4.6627,20.44415-5.60445,6.85307-13.95378,8.10716-13.9881,13.27077-0.021,3.152,3.07584,4.84279,2.152,6.456-1.32384,2.31175-9.08313,1.28511-9.68407-1.076-0.40244-1.58119,2.74773-2.41588,2.86935-4.6627C226.65111,194.33951,217.64719,193.32755,212.09661,186.6998Z" transform="translate(-122.29167 -94.95833)"/><path class="cls-17" d="M240.888,205.03571c-6.14972-7.28333-5.48248-16.88347-5.32128-18.6757,0.84864-9.43515,7.49573-22.87118,21.2851-24.76558,12.6948-1.744,24.01757,7.31411,27.01571,17.45771,2.465,8.33983-.67108,17.50172-5.32128,23.14163-6.396,7.75729-15.92466,9.17685-15.96382,15.02176-0.02391,3.5679,3.51028,5.48176,2.456,7.30787-1.51082,2.61677-10.36606,1.45467-11.05188-1.218-0.45928-1.78982,3.13582-2.73464,3.27463-5.27792C257.49821,213.68343,247.22255,212.53795,240.888,205.03571Z" transform="translate(-122.29167 -94.95833)"/><path class="cls-18" d="M173.12494,208.22065c-6.0154-7.04077-5.36274-16.32118-5.20506-18.05373,0.8301-9.12093,7.332-22.10948,20.82023-23.94079,12.41754-1.68595,23.493,7.07052,26.42568,16.8763,2.41117,8.06208-.65643,16.91884-5.20506,22.37092-6.25634,7.49894-15.57686,8.87123-15.61516,14.52148-0.02339,3.44907,3.43361,5.2992,2.40233,7.06449-1.47782,2.52962-10.13966,1.40623-10.8105-1.17741-0.44925-1.73021,3.06734-2.64356,3.20311-5.10214C189.37239,216.58037,179.32115,215.473,173.12494,208.22065Z" transform="translate(-122.29167 -94.95833)"/><path class="cls-19" d="M180.53371,142.58348c1.00038-.57753,7.526,4.88106,7.17339,11.47742-0.26416,4.94191-4.31059,9.05733-5.38,8.60806-0.91107-.38274.816-3.87772,0.35866-10.04274C182.21056,146.22107,179.82689,142.99153,180.53371,142.58348Z" transform="translate(-122.29167 -94.95833)"/><path class="cls-20" d="M213.17261,119.98731c-1.08386-1.113-9.642,2.63866-12.55342,10.04275-2.95874,7.52432.93121,16.23387,2.51068,16.14011,1.25726-.07463.46631-5.69257,3.94537-14.34677C210.21756,124.00685,213.98552,120.82211,213.17261,119.98731Z" transform="translate(-122.29167 -94.95833)"/><path class="cls-21" d="M185.19641,172.7117c-0.82315-.844-7.874,2.44206-11.11876,8.96674-4.07692,8.1981-.38947,17.97911.71735,17.93347,0.792-.03265-0.08415-5.08286,2.51068-12.55344C180.503,177.85327,185.99727,173.53287,185.19641,172.7117Z" transform="translate(-122.29167 -94.95833)"/><path class="cls-22" d="M274.50507,132.18207c0.74188-.85847,5.87378,1.06282,8.96674,5.02138,6.44727,8.25162,1.37485,21.95088.35867,21.87883-0.713-.05055,1.08383-6.84389-2.51068-15.42279C278.34811,136.56712,273.71863,133.0921,274.50507,132.18207Z" transform="translate(-122.29167 -94.95833)"/><path class="cls-23" d="M240.79015,184.54779c-1.19522.289-1.81992,10.47194,3.94537,17.5748,3.7068,4.5668,9.31221,6.94505,10.04274,6.09738,0.68561-.79555-3.24089-4.06323-7.89073-11.83609C242.316,188.742,241.59624,184.35289,240.79015,184.54779Z" transform="translate(-122.29167 -94.95833)"/><path class="cls-24" d="M221.78067,154.0609a17.7766,17.7766,0,0,0-6.456,5.38c-2.2159,3.03609-4.442,8.2379-2.86935,9.68408,1.74738,1.60689,8.84471-.8158,10.76007-6.09738C224.76256,158.76122,222.18485,154.67964,221.78067,154.0609Z" transform="translate(-122.29167 -94.95833)"/></svg>