<svg id="Layer_1" data-name="Layer 1" xmlns="http://www.w3.org/2000/svg" xmlns:xlink="http://www.w3.org/1999/xlink" viewBox="0 0 257.3151 258.96842"><defs><style>.cls-1{fill:#6ac06d;stroke:#6ac06d;}.cls-1,.cls-10,.cls-11,.cls-12,.cls-13,.cls-2,.cls-6,.cls-7,.cls-8,.cls-9{stroke-miterlimit:10;}.cls-2{stroke:#3fb762;fill:url(#linear-gradient);}.cls-3{font-size:18.16327px;}.cls-3,.cls-4,.cls-5{fill:#fff;font-family:Ubuntu;}.cls-4{font-size:19.50249px;}.cls-5{font-size:18.16347px;}.cls-6{fill:#010101;stroke:#010101;}.cls-7{fill:#fba819;stroke:#fba819;}.cls-8{fill:#efc378;stroke:#edc277;}.cls-9{fill:#aeaca9;stroke:#aeaca9;}.cls-10{fill:#8e8d8b;stroke:#8e8d8b;}.cls-11{fill:#51514f;}.cls-11,.cls-12{stroke:#51514f;}.cls-12{fill:none;}.cls-12,.cls-13{stroke-width:3px;}.cls-13{fill:#141313;stroke:#131212;}</style><linearGradient id="linear-gradient" x1="139.95394" y1="224.71769" x2="361.05176" y2="224.71769" gradientTransform="translate(475.22054 -25.78516) rotate(90)" gradientUnits="userSpaceOnUse"><stop offset="0" stop-color="#fff"/><stop offset="1" stop-color="#00a79d"/></linearGradient></defs><title>lithium</title><rect class="cls-1" x="0.5" y="0.5" width="256.3151" height="256.3029" rx="18.02651" ry="18.02651"/><rect class="cls-2" x="139.81152" y="114.16878" width="221.38265" height="221.09782" transform="translate(378.71403 354.47705) rotate(-180)"/><text class="cls-3" transform="translate(17.24642 254.40885) scale(1.34581 1)">Li</text><text class="cls-4" transform="translate(227.17806 17.07585) scale(1.17548 1)">3</text><text class="cls-5" transform="translate(224.96517 255.40885) scale(1.3984 1)">7</text><path class="cls-6" d="M210.61548,210.66489a51.35761,51.35761,0,0,0,14.795,4.70607c12.91341,2.01759,23.04833-1.554,30.14832-4.15242,8.91068-3.26113,17.37939-6.36054,23.44869-14.9487a34.26167,34.26167,0,0,0,5.583-13.28773q17.16779,44.154,34.33558,88.308a28.223,28.223,0,0,1-3.90812,11.07313c-1.16331,1.877-4.91019,7.3985-18.98227,13.56454-11.25384,4.93114-21.33057,9.34649-34.61474,7.47435a48.75916,48.75916,0,0,1-18.424-6.64386Z" transform="translate(-122.29167 -94.95833)"/><path class="cls-7" d="M198.33282,177.7224c3.47841,1.45547,25.38789,10.20247,48.29311-.83049a57.8762,57.8762,0,0,0,25.961-25.46815q5.93216,15.39448,11.86432,30.78889a39.28164,39.28164,0,0,1-7.17462,15.29407c-6.25839,8.06667-13.98361,11.229-20.09937,13.7325-5.42967,2.22266-16.32378,6.51973-30.21149,4.24458a50.66057,50.66057,0,0,1-16.85352-5.99236Q204.22256,193.60693,198.33282,177.7224Z" transform="translate(-122.29167 -94.95833)"/><path class="cls-8" d="M272.03336,150.31686a43.69966,43.69966,0,0,0-9.1601-4.40494c-16.8033-5.77023-32.16586.65469-39.11652,3.55415-7.20934,3.00737-24.5728,10.25049-26.00938,22.848a15.13754,15.13754,0,0,0,.03758,3.693c5.73325,2.59776,18.91646,7.56978,34.98293,4.63388a55.77144,55.77144,0,0,0,18.7916-7.10368,50.07413,50.07413,0,0,0,17.47774-17.228A46.64622,46.64622,0,0,0,272.03336,150.31686Z" transform="translate(-122.29167 -94.95833)"/><path class="cls-9" d="M261.48422,154.41141c-1.2802-3.95743-18.16179-3.204-31.94016,1.79813-10.128,3.6769-21.87293,10.84519-20.782,14.66146,0.79516,2.78153,8.17191,2.95158,12.13444,3.04294,3.07126,0.07079,12.479-.03977,24.68737-6.50084C248.43186,165.90586,262.75109,158.32762,261.48422,154.41141Z" transform="translate(-122.29167 -94.95833)"/><path class="cls-10" d="M220.05965,159.25248a16.02564,16.02564,0,0,1,7.95017-7.884,16.5991,16.5991,0,0,1,13.38974.27662q1.25528,3.18127,2.5106,6.36253a19.27853,19.27853,0,0,1-8.36862,7.05411,19.63223,19.63223,0,0,1-12.55289.9682Q221.52418,162.64121,220.05965,159.25248Z" transform="translate(-122.29167 -94.95833)"/><path class="cls-11" d="M240.98116,154.27311a33.93647,33.93647,0,0,1-4.18431,2.76632,34.382,34.382,0,0,1-8.92649,3.45786l14.78451-2.213Q241.818,156.27865,240.98116,154.27311Z" transform="translate(-122.29167 -94.95833)"/><line class="cls-12" x1="122.2427" y1="90.65188" x2="131.00608" y2="110.7298"/><line class="cls-12" x1="117.27014" y1="105.03606" x2="135.70345" y2="96.94496"/><path class="cls-13" d="M231.19536,250.71792q7.83208,20.93678,15.66413,41.87362c1.29421,0.49687,2.65616.9522,4.08628,1.35076,10.98694,3.06193,21.14658,1.42108,28.26355-.67537A68.54727,68.54727,0,0,1,231.19536,250.71792Z" transform="translate(-122.29167 -94.95833)"/></svg>