<svg id="Layer_1" data-name="Layer 1" xmlns="http://www.w3.org/2000/svg" xmlns:xlink="http://www.w3.org/1999/xlink" viewBox="0 0 197.80254 195.02311"><defs><style>.cls-1{fill:#ea3634;stroke:#ea3634;}.cls-1,.cls-10,.cls-11,.cls-12,.cls-13,.cls-14,.cls-15,.cls-16,.cls-17,.cls-18,.cls-19,.cls-20,.cls-21,.cls-22,.cls-23,.cls-24,.cls-25,.cls-26,.cls-27,.cls-28,.cls-9{stroke-miterlimit:10;}.cls-2{fill:url(#linear-gradient);}.cls-3{font-size:12.74469px;}.cls-3,.cls-4,.cls-5{fill:#fff;font-family:Ubuntu;}.cls-4{font-size:11.98378px;}.cls-5{font-size:11.22286px;}.cls-6{fill:#6abd45;opacity:0.74;}.cls-7{fill:#b9529f;opacity:0.58;}.cls-8{fill:#2b348b;opacity:0.64;}.cls-9{fill:#c32026;stroke:#c32026;}.cls-10{fill:#961b1e;stroke:#961b1e;}.cls-11{fill:#b9539f;stroke:#b9539f;}.cls-12{fill:#8e278f;stroke:#8e278f;}.cls-13{fill:#6bbe45;stroke:#6bbe45;}.cls-14{fill:#f9ed25;stroke:#f9ed25;}.cls-15{fill:#ada734;stroke:#ada734;}.cls-16{fill:#e63a38;stroke:#e63b38;}.cls-17{fill:#ea7d7d;stroke:#ea7d7d;}.cls-18{fill:#9a3794;stroke:#9a3794;}.cls-19{fill:#b46bac;stroke:#b46bac;}.cls-20{fill:#cb6528;stroke:#cb6528;}.cls-21{fill:#88c763;stroke:#88c763;}.cls-22{fill:#1b763b;stroke:#1b763b;}.cls-23{fill:#a6d38c;stroke:#a6d38c;}.cls-24{fill:#f04d23;stroke:#f04d23;}.cls-25{fill:#f47920;stroke:#f47920;}.cls-26{fill:#c03f27;stroke:#c03f27;}.cls-27{fill:#fecf0a;stroke:#fecf0c;}.cls-28{fill:#cba72c;stroke:#cba72c;}</style><linearGradient id="linear-gradient" x1="137.37478" y1="192.0429" x2="304.32563" y2="192.0429" gradientTransform="translate(412.93558 -28.77037) rotate(90.01102)" gradientUnits="userSpaceOnUse"><stop offset="0" stop-color="#fff"/><stop offset="1" stop-color="#2b348b"/></linearGradient></defs><title>mangnesium</title><rect class="cls-1" x="0.5" y="0.5" width="196.80254" height="193.4963" rx="11.35486" ry="11.35486"/><rect class="cls-2" x="135.85977" y="108.58382" width="169.98088" height="166.91816" transform="translate(319.40875 289.12747) rotate(180)"/><text class="cls-3" transform="translate(12.62142 191.38932) scale(1.19204 1)">Mg</text><text class="cls-4" transform="translate(167.20833 10.97428) scale(1.19938 1)">12</text><text class="cls-5" transform="translate(151.36165 192.8234) scale(1.1299 1)">24.31</text><path class="cls-6" d="M203.424,152.76826c0.5416,5.39958,14.91365,8.366,14.635,9.30888-0.25927.87717-12.0513-3.88074-15.20888,0-3.34083,4.10595,4.62935,15.86009,3.44352,16.58143-1.17207.713-8.568-11.00764-10.90448-9.89068-1.87727.89745,0.9218,9.40845-.86088,10.18158-1.92053.83292-5.58813-8.86359-10.33056-8.72707-6.19745.17842-10.22787,17.03407-11.76536,16.58143-1.54556-.455,4.24613-16.9818-0.86088-20.65407-4.75408-3.4185-16.88556,5.78869-17.79151,4.36354-0.6544-1.02942,6.2827-4.87813,5.7392-8.72707-0.8329-5.89846-18.66127-7.741-18.49338-8.873,0.19368-1.30589,23.69394,2.68314,25.09345-1.59952,1.1305-3.45942-12.63865-10.85046-11.76536-12.5088,0.80127-1.52158,12.43021,4.62977,14.348,2.03632,2.258-3.05352-10.52572-16.0935-9.46968-17.16323,1.16951-1.18468,16.60367,15.00517,20.66111,12.21789,3.37968-2.32168-2.95352-17.43821-1.3902-18.07268,1.30988-.53161,4.09526,10.75509,12.29468,13.70916,7.67845,2.76637,15.70356-3.36035,16.64368-1.74542,1.2458,2.14-13.179,12.32765-12.05232,14.25421,1.54177,2.63629,22.32368-5.86431,22.95679-4.36354C218.89667,140.98319,202.83487,146.89455,203.424,152.76826Z" transform="translate(-122.29167 -94.95833)"/><path class="cls-7" d="M284.33675,150.97848c2.39607,5.94241,14.36575,7.11175,14.15863,7.88235-0.20727.77122-11.59616-2.63258-13.10984,0-1.78345,3.10177,11.0486,13.00625,10.22568,13.98481-0.85122,1.01222-14.10875-10.14683-17.82938-7.37381-3.19946,2.38459,2.19561,13.92208.78659,14.49335-1.36474.55332-5.05244-10.82752-10.75007-11.18785-7.31121-.46237-14.36487,17.44736-14.683,17.29031-0.36265-.179,12.32486-21.711,8.91469-24.40985-3.62146-2.86606-24.25617,16.41028-26.21966,14.49335-1.52947-1.49322,11.64882-12.5477,8.6525-19.32446-3.53677-7.999-27.52218-5.31845-27.53067-6.10246-0.00928-.85761,28.71866-1.4233,28.84165-3.55977,0.11205-1.94645-23.53206-4.961-23.33552-6.86527,0.10135-.98189,6.38666-0.17259,7.60371-2.797,1.72935-3.729-8.33674-11.02182-7.60371-11.95065,1.10192-1.39626,23.31126,15.76354,27.00625,12.45919,3.47476-3.10739-10.81815-23.06484-9.17687-24.15557,1.63706-1.08792,15.59453,18.94055,20.18914,16.78176,3.87737-1.82178-.36711-18.76117.22685-18.86,0.54-.08983,1.44075,14.3434,6.59027,15.55449,6.28255,1.47755,15.90746-17.42689,17.04279-16.78176,0.8061,0.458-3.93837,10.04851-8.3903,23.9013-2.27762,7.08719-2.47146,9.04414-1.57318,9.66223,3.31484,2.2809,19.72192-14.89622,20.71355-13.98481C295.97423,130.944,281.19921,143.19717,284.33675,150.97848Z" transform="translate(-122.29167 -94.95833)"/><path class="cls-8" d="M252.30387,192.49471c-0.19587,1.84842-22.79215-.30867-23.74825,3.62176-0.87605,3.60131,16.88521,10.3832,16.18007,12.16183-0.69177,1.74489-18.01116-4.21264-19.608-1.06917-1.11217,2.18932,5.86926,7.87379,5.34765,8.41976-0.4733.49541-5.48076-4.96075-8.50141-3.74212-3.52918,1.42377-2.34336,11.15085-3.428,11.22632-1.158.08058-1.7817-11.05685-4.79917-11.49362-3.06105-.44308-6.661,10.40456-8.50139,9.88986-1.776-.49669,1.48169-10.62564-2.1939-12.96373-3.98479-2.53477-13.46042,5.778-14.67177,4.41036-1.136-1.28257,7.847-7.85893,6.30749-12.83009-1.87372-6.0502-18.30026-6.38553-18.17031-7.63116,0.1105-1.05917,11.82319.75881,13.64539-3.0606,1.94681-4.08056-8.68722-11.8888-7.1302-14.03289,1.54437-2.12668,12.392,5.024,16.04294,1.7374,3.23816-2.915-.95828-12.4443-0.13711-12.69643,0.69518-.21345,2.4058,7.01424,5.21052,7.21693,4.353,0.31455,8.671-16.48551,10.262-16.09828,1.55757,0.37909-2.9763,16.38557,1.256,18.50392,3.93374,1.96889,13.25338-9.15439,14.80888-7.88516,1.41651,1.15582-6.10256,10.551-4.1136,12.56279,2.10539,2.1295,13.579-5.3141,13.98617-4.67763,0.36319,0.56766-9.57815,5.21663-9.04987,9.35526C232.03054,189.15911,252.49,190.73754,252.30387,192.49471Z" transform="translate(-122.29167 -94.95833)"/><path class="cls-9" d="M171.4545,180.81649a25.36709,25.36709,0,0,1,8.92148-5.931,22.80592,22.80592,0,0,1,10.6562-1.41214q12.39092,31.49078,24.78187,62.98158a18.629,18.629,0,0,1-7.15528,7.10508,15.65384,15.65384,0,0,1-10.192,1.65021Q184.96063,213.01333,171.4545,180.81649Z" transform="translate(-122.29167 -94.95833)"/><path class="cls-10" d="M181.84714,177.00392a17.51423,17.51423,0,0,0-4.4686,1.5805,18.91882,18.91882,0,0,0-3.85223,2.63414q10.09286,24.23413,20.18574,48.46827c-5.29875-19.56559-8.18275-28.73048-9.86173-33.36585a37.42971,37.42971,0,0,1-1.23271-4.039A41.72113,41.72113,0,0,1,181.84714,177.00392Z" transform="translate(-122.29167 -94.95833)"/><path class="cls-11" d="M248.594,172.39345q-11.27091,28.98087-22.54185,57.96175a19.16019,19.16019,0,0,0,6.70667,8.49257,15.54464,15.54464,0,0,0,9.50111,2.76008l25.89517-62.208a26.50025,26.50025,0,0,0-9.3148-5.73249A24.07428,24.07428,0,0,0,248.594,172.39345Z" transform="translate(-122.29167 -94.95833)"/><path class="cls-12" d="M245.02723,172.44988a27.79176,27.79176,0,0,1,14.27838,1.43846,30.8715,30.8715,0,0,1,11.044,7.28215l-5.99533-21.57676Z" transform="translate(-122.29167 -94.95833)"/><path class="cls-13" d="M207.995,176.11876l1.68963,67.12109c0.49419,0.64285,5.17993,6.5334,12.31017,5.77682a14.22943,14.22943,0,0,0,9.1723-5.22664l1.44826-67.67126H207.995Z" transform="translate(-122.29167 -94.95833)"/><path class="cls-14" d="M226.37908,248.82828c-0.0595.94528-.37014,7.34333,3.85225,11.94147a12.28373,12.28373,0,0,0,14.94671,2.45853q18.953-22.91707,37.90607-45.83412a24.73732,24.73732,0,0,1-14.63853-5.44389,30.5522,30.5522,0,0,1-9.39948-13.17073Z" transform="translate(-122.29167 -94.95833)"/><path class="cls-15" d="M261.97383,210.36976a18.77239,18.77239,0,0,0,6.77995,6.84878,15.81436,15.81436,0,0,0,8.32083,2.10731L255.96432,245.4917A71.20929,71.20929,0,0,1,257.043,225.6478,68.21988,68.21988,0,0,1,261.97383,210.36976Z" transform="translate(-122.29167 -94.95833)"/><path class="cls-16" d="M168.44133,183.6771a39.15945,39.15945,0,0,1,12.48129-8.25366A35.47029,35.47029,0,0,1,193.558,172.7893L174.45084,159.9698Q171.44608,171.82344,168.44133,183.6771Z" transform="translate(-122.29167 -94.95833)"/><path class="cls-17" d="M177.37854,174.19417a16.83252,16.83252,0,0,1,6.93405-2.98537,15.595,15.595,0,0,1,4.00633-.1756q-3.9293-2.54633-7.85858-5.09268a8.22621,8.22621,0,0,1,0,3.86341A7.36045,7.36045,0,0,1,177.37854,174.19417Z" transform="translate(-122.29167 -94.95833)"/><path class="cls-18" d="M259.18332,180.59636a10.76922,10.76922,0,0,0-5.68983-4.77267,8.74182,8.74182,0,0,0-4.86019-.14218q-4.44146,11.8495-8.88291,23.699a78.70336,78.70336,0,0,1,10.864-12.11737A73.38462,73.38462,0,0,1,259.18332,180.59636Z" transform="translate(-122.29167 -94.95833)"/><path class="cls-19" d="M263.171,162.29083l-12.70065,7.91146a22.75917,22.75917,0,0,1,4.812.35962,23.63585,23.63585,0,0,1,6.38979,2.15768,7.19092,7.19092,0,0,1-1.65662-4.49516A7.03386,7.03386,0,0,1,263.171,162.29083Z" transform="translate(-122.29167 -94.95833)"/><path class="cls-20" d="M217.6665,248.01181l0.17029,19.69946a2.862,2.862,0,0,0,1.5327,1.84379,2.22713,2.22713,0,0,0,2.3842-.48521,2.89327,2.89327,0,0,0,.76633-1.35858q0.08514-9.84972.17031-19.69946H217.6665Z" transform="translate(-122.29167 -94.95833)"/><path class="cls-21" d="M223.90709,179.81192c0.7111,9.59571,1.16864,19.94706,1.22561,30.96772,0.05877,11.3722-.31632,22.041-0.96551,31.91l4.1034-.27509c-0.29914-9.54073-.40047-19.54861-0.24138-29.98443,0.17953-11.777.674-23.00364,1.39312-33.62841a20.51413,20.51413,0,0,1-3.25.78568A20.16745,20.16745,0,0,1,223.90709,179.81192Z" transform="translate(-122.29167 -94.95833)"/><path class="cls-21" d="M217.16076,180.20477a22.516,22.516,0,0,1-3.6141-.2348,22.86939,22.86939,0,0,1-3.42768-.77537c-0.0804,15.97684-.02936,20.03016.04841,20.03141a29.65209,29.65209,0,0,1,2.17239-12.10379A22.05073,22.05073,0,0,1,217.16076,180.20477Z" transform="translate(-122.29167 -94.95833)"/><path class="cls-22" d="M220.0638,151.49306L204.133,175.1505a33.94317,33.94317,0,0,0,16.89632,3.57612,34.38367,34.38367,0,0,0,15.44808-4.67647Z" transform="translate(-122.29167 -94.95833)"/><path class="cls-23" d="M219.67217,153.2669c-6.97306,9.58895-8.4597,12.37929-8.12515,12.73937,0.41981,0.45186,4.15121-2.44546,6.35239-6.90281A19.13511,19.13511,0,0,0,219.67217,153.2669Z" transform="translate(-122.29167 -94.95833)"/><path class="cls-20" d="M207.55069,262.68055l7.13666,9.80173a2.38594,2.38594,0,0,0,3.11085-.31281,3.44443,3.44443,0,0,0,.732-2.71112l-7.13666-9.80174Z" transform="translate(-122.29167 -94.95833)"/><path class="cls-24" d="M183.6326,201.72923l30.72284,45.51762c0.15419,0.75136,1.431,7.46426-2.45783,12.60487a11.9241,11.9241,0,0,1-15.36143,3.15122l-36.86742-44.81735a26.8881,26.8881,0,0,0,15.05419-5.60215A32.10105,32.10105,0,0,0,183.6326,201.72923Z" transform="translate(-122.29167 -94.95833)"/><path class="cls-25" d="M150.43612,214.3161a13.26249,13.26249,0,0,0,3.994,3.50136c7.99,4.42373,17.54637-2.82936,20.27707-4.9019,2.25449-1.71111,12.01437-9.11862,10.44577-16.10624a8.86665,8.86665,0,0,0-3.994-5.252l-28.57225-7.35284Q151.51143,199.26029,150.43612,214.3161Z" transform="translate(-122.29167 -94.95833)"/><path class="cls-26" d="M171.34015,218.10229c1.00891-.03687,8.25762-0.42648,11.68852-6.66046a13.621,13.621,0,0,0,1.46106-4.2553c15.17676,21.88029,18.89482,27.72595,18.66917,27.93693-0.30081.28125-6.33565-10.64262-17.53278-15.171A29.33981,29.33981,0,0,0,171.34015,218.10229Z" transform="translate(-122.29167 -94.95833)"/><path class="cls-20" d="M156.24249,187.39017c0.20838-.68422,4.95786.52127,14.44831,2.96022,8.68993,2.23321,11.22118,3.093,11.68852,5.18034,0.551,2.46081-2.05751,5.32813-3.89617,7.03049-1.73624-1.24718-4.30867-3.06453-7.46767-5.18036C160.75025,190.50544,155.96608,188.29783,156.24249,187.39017Z" transform="translate(-122.29167 -94.95833)"/><path class="cls-20" d="M230.05724,259.30614l-7.66594,10.325a4.011,4.011,0,0,0,1.19468,2.3827,3.11445,3.11445,0,0,0,2.88718.68077l7.26774-9.5308Z" transform="translate(-122.29167 -94.95833)"/><path class="cls-27" d="M257.197,193.33563c0.55212,2.57393,2.96539,12.51891,11.55674,19.31706a26.80265,26.80265,0,0,0,23.26755,4.91708q-1.0016-16.77072-2.00317-33.54146Z" transform="translate(-122.29167 -94.95833)"/><path class="cls-28" d="M259.97065,194.5649a38.70036,38.70036,0,0,0,3.08179,6.14633,35.36286,35.36286,0,0,0,9.2454,10.00976,32.70384,32.70384,0,0,1,.15408-7.55122,31.624,31.624,0,0,1,4.62269-12.6439,58.01714,58.01714,0,0,1-10.6322,3.161A56.5872,56.5872,0,0,1,259.97065,194.5649Z" transform="translate(-122.29167 -94.95833)"/></svg>