<svg id="Layer_1" data-name="Layer 1" xmlns="http://www.w3.org/2000/svg" viewBox="0 0 197.80254 194.4963"><defs><style>.cls-1{fill:#ea3634;stroke:#ea3634;}.cls-1,.cls-2,.cls-3,.cls-4{stroke-miterlimit:10;}.cls-2{fill:#c43030;stroke:#c43030;}.cls-3,.cls-4{fill:none;stroke-width:2px;}.cls-3{stroke:#7e7e7f;}.cls-4{stroke:#7f7e7e;}.cls-5{fill:#919091;}.cls-6{font-size:24.15845px;fill:#7e7e7f;font-family:Ubuntu;}</style></defs><title>mangnesium</title><rect class="cls-1" x="0.5" y="0.5" width="196.80254" height="193.4963"/><rect class="cls-2" x="13.5681" y="14.62548" width="169.98088" height="166.91816"/><ellipse class="cls-3" cx="99.45603" cy="96.14947" rx="44.96911" ry="43.65551"/><ellipse class="cls-4" cx="99.52158" cy="96.25135" rx="29.71218" ry="28.29386"/><ellipse class="cls-5" cx="98.96663" cy="96.18648" rx="5.45316" ry="5.38308"/><ellipse class="cls-5" cx="98.4655" cy="68.50936" rx="3.59796" ry="3.49086"/><ellipse class="cls-5" cx="136.0823" cy="71.82728" rx="3.59796" ry="3.49086"/><ellipse class="cls-5" cx="70.40517" cy="98.60937" rx="3.59796" ry="3.49086"/><ellipse class="cls-5" cx="80.71745" cy="117.64742" rx="3.59796" ry="3.49086"/><ellipse class="cls-5" cx="119.58679" cy="116.06091" rx="3.59796" ry="3.49086"/><ellipse class="cls-5" cx="128.70919" cy="95.43637" rx="3.59796" ry="3.49086"/><ellipse class="cls-5" cx="120.38004" cy="76.0017" rx="3.59796" ry="3.49086"/><ellipse class="cls-5" cx="77.69077" cy="77.27369" rx="3.59796" ry="3.49086"/><ellipse class="cls-5" cx="100.10251" cy="52.91221" rx="3.59796" ry="3.49086"/><ellipse class="cls-5" cx="99.50426" cy="139.6121" rx="3.59796" ry="3.49086"/><ellipse class="cls-5" cx="99.6054" cy="123.808" rx="3.59796" ry="3.49086"/><text class="cls-6" transform="translate(20.58822 174.28727) scale(1.01704 1)">Mg</text><text class="cls-6" transform="translate(155.70589 37.58805) scale(1.01704 1)">12</text><text class="cls-6" transform="translate(121.61458 174.28825) scale(1.01704 1)">24.31</text></svg>